<mxfile host="app.diagrams.net" agent="Mozilla/5.0 (Windows NT 10.0; Win64; x64) AppleWebKit/537.36 (KHTML, like Gecko) Chrome/123.0.0.0 Safari/537.36 OPR/109.0.0.0" version="24.7.6" pages="11">
  <diagram id="-3mAA6-BzWSL6tETN5ir" name="Main loop">
    <mxGraphModel dx="1235" dy="1816" grid="1" gridSize="10" guides="1" tooltips="1" connect="1" arrows="1" fold="1" page="1" pageScale="1" pageWidth="850" pageHeight="1100" math="0" shadow="0">
      <root>
        <mxCell id="0" />
        <mxCell id="1" parent="0" />
        <mxCell id="PdZ9xGOS8Q5X3vVngnlD-1" value="" style="edgeStyle=orthogonalEdgeStyle;rounded=0;orthogonalLoop=1;jettySize=auto;html=1;" parent="1" target="PdZ9xGOS8Q5X3vVngnlD-6" edge="1">
          <mxGeometry relative="1" as="geometry">
            <mxPoint x="677.5" y="-810" as="sourcePoint" />
          </mxGeometry>
        </mxCell>
        <mxCell id="PdZ9xGOS8Q5X3vVngnlD-2" value="" style="edgeStyle=orthogonalEdgeStyle;rounded=0;orthogonalLoop=1;jettySize=auto;html=1;" parent="1" target="PdZ9xGOS8Q5X3vVngnlD-6" edge="1">
          <mxGeometry relative="1" as="geometry">
            <mxPoint x="677.5" y="-810" as="sourcePoint" />
          </mxGeometry>
        </mxCell>
        <mxCell id="PdZ9xGOS8Q5X3vVngnlD-3" value="" style="edgeStyle=orthogonalEdgeStyle;rounded=0;orthogonalLoop=1;jettySize=auto;html=1;" parent="1" target="PdZ9xGOS8Q5X3vVngnlD-6" edge="1">
          <mxGeometry relative="1" as="geometry">
            <mxPoint x="677.5" y="-810" as="sourcePoint" />
          </mxGeometry>
        </mxCell>
        <mxCell id="PdZ9xGOS8Q5X3vVngnlD-5" style="edgeStyle=orthogonalEdgeStyle;rounded=0;orthogonalLoop=1;jettySize=auto;html=1;entryX=0.5;entryY=0;entryDx=0;entryDy=0;" parent="1" source="PdZ9xGOS8Q5X3vVngnlD-6" target="PdZ9xGOS8Q5X3vVngnlD-17" edge="1">
          <mxGeometry relative="1" as="geometry" />
        </mxCell>
        <mxCell id="PdZ9xGOS8Q5X3vVngnlD-6" value="MainMenu.Update()" style="whiteSpace=wrap;html=1;rounded=1;glass=0;strokeWidth=1;shadow=0;" parent="1" vertex="1">
          <mxGeometry x="617.5" y="-720" width="120" height="60" as="geometry" />
        </mxCell>
        <mxCell id="PdZ9xGOS8Q5X3vVngnlD-15" style="edgeStyle=orthogonalEdgeStyle;rounded=0;orthogonalLoop=1;jettySize=auto;html=1;" parent="1" source="PdZ9xGOS8Q5X3vVngnlD-17" edge="1">
          <mxGeometry relative="1" as="geometry">
            <mxPoint x="807.5" y="-550" as="targetPoint" />
          </mxGeometry>
        </mxCell>
        <mxCell id="PdZ9xGOS8Q5X3vVngnlD-16" style="edgeStyle=orthogonalEdgeStyle;rounded=0;orthogonalLoop=1;jettySize=auto;html=1;entryX=0.5;entryY=0;entryDx=0;entryDy=0;" parent="1" source="PdZ9xGOS8Q5X3vVngnlD-17" edge="1" target="PdZ9xGOS8Q5X3vVngnlD-22">
          <mxGeometry relative="1" as="geometry">
            <mxPoint x="677.5" y="-450" as="targetPoint" />
          </mxGeometry>
        </mxCell>
        <mxCell id="PdZ9xGOS8Q5X3vVngnlD-17" value="User clicked on player1" style="rhombus;whiteSpace=wrap;html=1;rounded=1;glass=0;strokeWidth=1;shadow=0;" parent="1" vertex="1">
          <mxGeometry x="617.5" y="-590" width="120" height="80" as="geometry" />
        </mxCell>
        <mxCell id="PdZ9xGOS8Q5X3vVngnlD-18" value="Yes" style="text;html=1;align=center;verticalAlign=middle;resizable=0;points=[];autosize=1;strokeColor=none;fillColor=none;" parent="1" vertex="1">
          <mxGeometry x="767.5" y="-580" width="40" height="30" as="geometry" />
        </mxCell>
        <mxCell id="PdZ9xGOS8Q5X3vVngnlD-19" value="No" style="text;html=1;align=center;verticalAlign=middle;resizable=0;points=[];autosize=1;strokeColor=none;fillColor=none;" parent="1" vertex="1">
          <mxGeometry x="680" y="-412" width="40" height="30" as="geometry" />
        </mxCell>
        <mxCell id="PdZ9xGOS8Q5X3vVngnlD-20" style="edgeStyle=orthogonalEdgeStyle;rounded=0;orthogonalLoop=1;jettySize=auto;html=1;" parent="1" source="PdZ9xGOS8Q5X3vVngnlD-22" target="PdZ9xGOS8Q5X3vVngnlD-23" edge="1">
          <mxGeometry relative="1" as="geometry" />
        </mxCell>
        <mxCell id="PdZ9xGOS8Q5X3vVngnlD-21" style="edgeStyle=orthogonalEdgeStyle;rounded=0;orthogonalLoop=1;jettySize=auto;html=1;" parent="1" source="PdZ9xGOS8Q5X3vVngnlD-22" edge="1">
          <mxGeometry relative="1" as="geometry">
            <mxPoint x="677.5" y="-252" as="targetPoint" />
          </mxGeometry>
        </mxCell>
        <mxCell id="PdZ9xGOS8Q5X3vVngnlD-22" value="User clicked on player2" style="rhombus;whiteSpace=wrap;html=1;rounded=1;glass=0;strokeWidth=1;shadow=0;" parent="1" vertex="1">
          <mxGeometry x="617.5" y="-392" width="120" height="80" as="geometry" />
        </mxCell>
        <mxCell id="PdZ9xGOS8Q5X3vVngnlD-23" value="mainMenu.SetPlayer2Mode()" style="whiteSpace=wrap;html=1;rounded=1;glass=0;strokeWidth=1;shadow=0;" parent="1" vertex="1">
          <mxGeometry x="807.5" y="-382" width="180" height="60" as="geometry" />
        </mxCell>
        <mxCell id="PdZ9xGOS8Q5X3vVngnlD-24" value="Yes" style="text;html=1;align=center;verticalAlign=middle;resizable=0;points=[];autosize=1;strokeColor=none;fillColor=none;" parent="1" vertex="1">
          <mxGeometry x="770" y="-382" width="40" height="30" as="geometry" />
        </mxCell>
        <mxCell id="PdZ9xGOS8Q5X3vVngnlD-25" value="No" style="text;html=1;align=center;verticalAlign=middle;resizable=0;points=[];autosize=1;strokeColor=none;fillColor=none;" parent="1" vertex="1">
          <mxGeometry x="667.5" y="-284" width="40" height="30" as="geometry" />
        </mxCell>
        <mxCell id="UO7h2MnIc67szq5Gfrss-1" style="edgeStyle=orthogonalEdgeStyle;rounded=0;orthogonalLoop=1;jettySize=auto;html=1;" parent="1" source="PdZ9xGOS8Q5X3vVngnlD-26" edge="1">
          <mxGeometry relative="1" as="geometry">
            <mxPoint x="1070" y="-550" as="targetPoint" />
          </mxGeometry>
        </mxCell>
        <mxCell id="PdZ9xGOS8Q5X3vVngnlD-26" value="mainMenu.SetPlayer1Mode()" style="whiteSpace=wrap;html=1;rounded=1;glass=0;strokeWidth=1;shadow=0;" parent="1" vertex="1">
          <mxGeometry x="807.5" y="-580" width="180" height="60" as="geometry" />
        </mxCell>
        <mxCell id="PdZ9xGOS8Q5X3vVngnlD-27" style="edgeStyle=orthogonalEdgeStyle;rounded=0;orthogonalLoop=1;jettySize=auto;html=1;" parent="1" source="PdZ9xGOS8Q5X3vVngnlD-28" target="PdZ9xGOS8Q5X3vVngnlD-29" edge="1">
          <mxGeometry relative="1" as="geometry" />
        </mxCell>
        <mxCell id="PdZ9xGOS8Q5X3vVngnlD-28" value="User clicked on&lt;br&gt;&amp;nbsp;exit" style="rhombus;whiteSpace=wrap;html=1;rounded=1;glass=0;strokeWidth=1;shadow=0;" parent="1" vertex="1">
          <mxGeometry x="617.5" y="-254" width="120" height="80" as="geometry" />
        </mxCell>
        <mxCell id="bKVKFWOrkRCP9WEI6uu1-3" value="" style="edgeStyle=orthogonalEdgeStyle;rounded=0;orthogonalLoop=1;jettySize=auto;html=1;" edge="1" parent="1" source="PdZ9xGOS8Q5X3vVngnlD-29" target="bKVKFWOrkRCP9WEI6uu1-2">
          <mxGeometry relative="1" as="geometry" />
        </mxCell>
        <mxCell id="PdZ9xGOS8Q5X3vVngnlD-29" value="mainMenu.Exit()" style="whiteSpace=wrap;html=1;rounded=1;glass=0;strokeWidth=1;shadow=0;" parent="1" vertex="1">
          <mxGeometry x="807.5" y="-244" width="180" height="60" as="geometry" />
        </mxCell>
        <mxCell id="PdZ9xGOS8Q5X3vVngnlD-30" value="Yes" style="text;html=1;align=center;verticalAlign=middle;resizable=0;points=[];autosize=1;strokeColor=none;fillColor=none;" parent="1" vertex="1">
          <mxGeometry x="767.5" y="-244" width="40" height="30" as="geometry" />
        </mxCell>
        <mxCell id="0r_k48NCajrCXK-K6Jox-5" value="No" style="text;html=1;align=center;verticalAlign=middle;resizable=0;points=[];autosize=1;strokeColor=none;fillColor=none;" parent="1" vertex="1">
          <mxGeometry x="667.5" y="-170" width="40" height="30" as="geometry" />
        </mxCell>
        <mxCell id="8Qh1TaWY8J6NjOvfVAaq-1" style="edgeStyle=orthogonalEdgeStyle;rounded=0;orthogonalLoop=1;jettySize=auto;html=1;exitX=0.5;exitY=1;exitDx=0;exitDy=0;entryX=0;entryY=0.5;entryDx=0;entryDy=0;" parent="1" source="PdZ9xGOS8Q5X3vVngnlD-28" edge="1" target="PdZ9xGOS8Q5X3vVngnlD-6">
          <mxGeometry relative="1" as="geometry">
            <mxPoint x="581" y="-690" as="targetPoint" />
            <Array as="points">
              <mxPoint x="678" y="-140" />
              <mxPoint x="581" y="-140" />
              <mxPoint x="581" y="-690" />
            </Array>
            <mxPoint x="677.5" y="-110" as="sourcePoint" />
          </mxGeometry>
        </mxCell>
        <mxCell id="bKVKFWOrkRCP9WEI6uu1-5" value="" style="edgeStyle=orthogonalEdgeStyle;rounded=0;orthogonalLoop=1;jettySize=auto;html=1;" edge="1" parent="1" source="UO7h2MnIc67szq5Gfrss-2" target="bKVKFWOrkRCP9WEI6uu1-4">
          <mxGeometry relative="1" as="geometry" />
        </mxCell>
        <UserObject label="Level.Update(Player1)&lt;span style=&quot;color: rgba(0, 0, 0, 0); font-family: monospace; font-size: 0px; text-align: start; text-wrap: nowrap;&quot;&gt;%3CmxGraphModel%3E%3Croot%3E%3CmxCell%20id%3D%220%22%2F%3E%3CmxCell%20id%3D%221%22%20parent%3D%220%22%2F%3E%3CmxCell%20id%3D%222%22%20value%3D%22Powerup.Update()%22%20style%3D%22ellipse%3BwhiteSpace%3Dwrap%3Bhtml%3D1%3B%22%20vertex%3D%221%22%20parent%3D%221%22%3E%3CmxGeometry%20x%3D%22990%22%20y%3D%22-460%22%20width%3D%22120%22%20height%3D%2250%22%20as%3D%22geometry%22%2F%3E%3C%2FmxCell%3E%3C%2Froot%3E%3C%2FmxGraphModel%3E.upwwww&lt;/span&gt;" link="data:page/id,t9ncCTdiv2nbOx0GYwpJ" id="UO7h2MnIc67szq5Gfrss-2">
          <mxCell style="whiteSpace=wrap;html=1;rounded=1;glass=0;strokeWidth=1;shadow=0;" parent="1" vertex="1">
            <mxGeometry x="1070" y="-580" width="120" height="60" as="geometry" />
          </mxCell>
        </UserObject>
        <mxCell id="UO7h2MnIc67szq5Gfrss-8" style="edgeStyle=orthogonalEdgeStyle;rounded=0;orthogonalLoop=1;jettySize=auto;html=1;" parent="1" edge="1">
          <mxGeometry relative="1" as="geometry">
            <mxPoint x="1069.5" y="-352" as="targetPoint" />
            <mxPoint x="987.5" y="-352" as="sourcePoint" />
          </mxGeometry>
        </mxCell>
        <mxCell id="bKVKFWOrkRCP9WEI6uu1-1" value="Start" style="ellipse;whiteSpace=wrap;html=1;" vertex="1" parent="1">
          <mxGeometry x="617.5" y="-890" width="120" height="80" as="geometry" />
        </mxCell>
        <mxCell id="bKVKFWOrkRCP9WEI6uu1-2" value="End" style="ellipse;whiteSpace=wrap;html=1;rounded=1;glass=0;strokeWidth=1;shadow=0;" vertex="1" parent="1">
          <mxGeometry x="1110" y="-30" width="80" height="80" as="geometry" />
        </mxCell>
        <mxCell id="bKVKFWOrkRCP9WEI6uu1-6" style="edgeStyle=orthogonalEdgeStyle;rounded=0;orthogonalLoop=1;jettySize=auto;html=1;" edge="1" parent="1" source="bKVKFWOrkRCP9WEI6uu1-4">
          <mxGeometry relative="1" as="geometry">
            <mxPoint x="1130" y="-580" as="targetPoint" />
            <Array as="points">
              <mxPoint x="1440" y="-550" />
              <mxPoint x="1470" y="-549" />
              <mxPoint x="1470" y="-650" />
              <mxPoint x="1130" y="-650" />
            </Array>
          </mxGeometry>
        </mxCell>
        <mxCell id="bKVKFWOrkRCP9WEI6uu1-49" style="edgeStyle=orthogonalEdgeStyle;rounded=0;orthogonalLoop=1;jettySize=auto;html=1;entryX=0;entryY=0.5;entryDx=0;entryDy=0;" edge="1" parent="1" source="bKVKFWOrkRCP9WEI6uu1-4" target="bKVKFWOrkRCP9WEI6uu1-25">
          <mxGeometry relative="1" as="geometry">
            <mxPoint x="1330" y="-420" as="targetPoint" />
            <Array as="points">
              <mxPoint x="1330" y="-422" />
            </Array>
          </mxGeometry>
        </mxCell>
        <mxCell id="bKVKFWOrkRCP9WEI6uu1-4" value="escape pressed" style="rhombus;whiteSpace=wrap;html=1;rounded=1;glass=0;strokeWidth=1;shadow=0;" vertex="1" parent="1">
          <mxGeometry x="1290" y="-590" width="80" height="80" as="geometry" />
        </mxCell>
        <mxCell id="bKVKFWOrkRCP9WEI6uu1-8" value="No" style="text;html=1;align=center;verticalAlign=middle;resizable=0;points=[];autosize=1;strokeColor=none;fillColor=none;" vertex="1" parent="1">
          <mxGeometry x="1430" y="-572" width="40" height="30" as="geometry" />
        </mxCell>
        <mxCell id="bKVKFWOrkRCP9WEI6uu1-13" value="Yes" style="text;html=1;align=center;verticalAlign=middle;resizable=0;points=[];autosize=1;strokeColor=none;fillColor=none;" vertex="1" parent="1">
          <mxGeometry x="1330" y="-510" width="40" height="30" as="geometry" />
        </mxCell>
        <mxCell id="bKVKFWOrkRCP9WEI6uu1-17" value="" style="edgeStyle=orthogonalEdgeStyle;rounded=0;orthogonalLoop=1;jettySize=auto;html=1;" edge="1" parent="1" source="bKVKFWOrkRCP9WEI6uu1-18">
          <mxGeometry relative="1" as="geometry">
            <mxPoint x="1290" y="-350" as="targetPoint" />
          </mxGeometry>
        </mxCell>
        <UserObject label="Level.Update(Player2)&lt;span style=&quot;color: rgba(0, 0, 0, 0); font-family: monospace; font-size: 0px; text-align: start; text-wrap: nowrap;&quot;&gt;%3CmxGraphModel%3E%3Croot%3E%3CmxCell%20id%3D%220%22%2F%3E%3CmxCell%20id%3D%221%22%20parent%3D%220%22%2F%3E%3CmxCell%20id%3D%222%22%20value%3D%22Powerup.Update()%22%20style%3D%22ellipse%3BwhiteSpace%3Dwrap%3Bhtml%3D1%3B%22%20vertex%3D%221%22%20parent%3D%221%22%3E%3CmxGeometry%20x%3D%22990%22%20y%3D%22-460%22%20width%3D%22120%22%20height%3D%2250%22%20as%3D%22geometry%22%2F%3E%3C%2FmxCell%3E%3C%2Froot%3E%3C%2FmxGraphModel%3E.upwwww&lt;/span&gt;" link="data:page/id,t9ncCTdiv2nbOx0GYwpJ" id="bKVKFWOrkRCP9WEI6uu1-18">
          <mxCell style="whiteSpace=wrap;html=1;rounded=1;glass=0;strokeWidth=1;shadow=0;" vertex="1" parent="1">
            <mxGeometry x="1070" y="-380" width="120" height="60" as="geometry" />
          </mxCell>
        </UserObject>
        <mxCell id="bKVKFWOrkRCP9WEI6uu1-23" value="Yes" style="text;html=1;align=center;verticalAlign=middle;resizable=0;points=[];autosize=1;strokeColor=none;fillColor=none;" vertex="1" parent="1">
          <mxGeometry x="1330" y="-410" width="40" height="30" as="geometry" />
        </mxCell>
        <mxCell id="bKVKFWOrkRCP9WEI6uu1-43" style="edgeStyle=orthogonalEdgeStyle;rounded=0;orthogonalLoop=1;jettySize=auto;html=1;entryX=1;entryY=0.5;entryDx=0;entryDy=0;" edge="1" parent="1" source="bKVKFWOrkRCP9WEI6uu1-25" target="PdZ9xGOS8Q5X3vVngnlD-6">
          <mxGeometry relative="1" as="geometry">
            <mxPoint x="1650" y="-730" as="targetPoint" />
            <Array as="points">
              <mxPoint x="1630" y="-422" />
              <mxPoint x="1650" y="-421" />
              <mxPoint x="1650" y="-690" />
            </Array>
          </mxGeometry>
        </mxCell>
        <mxCell id="bKVKFWOrkRCP9WEI6uu1-25" value="Level.Exit()&lt;span style=&quot;color: rgba(0, 0, 0, 0); font-family: monospace; font-size: 0px; text-align: start; text-wrap: nowrap;&quot;&gt;%3CmxGraphModel%3E%3Croot%3E%3CmxCell%20id%3D%220%22%2F%3E%3CmxCell%20id%3D%221%22%20parent%3D%220%22%2F%3E%3CmxCell%20id%3D%222%22%20value%3D%22Powerup.Update()%22%20style%3D%22ellipse%3BwhiteSpace%3Dwrap%3Bhtml%3D1%3B%22%20vertex%3D%221%22%20parent%3D%221%22%3E%3CmxGeometry%20x%3D%22990%22%20y%3D%22-460%22%20width%3D%22120%22%20height%3D%2250%22%20as%3D%22geometry%22%2F%3E%3C%2FmxCell%3E%3C%2Froot%3E%3C%2FmxGraphModel%3E.upwwww&lt;/span&gt;" style="whiteSpace=wrap;html=1;rounded=1;glass=0;strokeWidth=1;shadow=0;" vertex="1" parent="1">
          <mxGeometry x="1460" y="-452" width="120" height="60" as="geometry" />
        </mxCell>
        <mxCell id="bKVKFWOrkRCP9WEI6uu1-42" style="edgeStyle=orthogonalEdgeStyle;rounded=0;orthogonalLoop=1;jettySize=auto;html=1;entryX=0;entryY=0.5;entryDx=0;entryDy=0;" edge="1" parent="1" source="bKVKFWOrkRCP9WEI6uu1-35" target="bKVKFWOrkRCP9WEI6uu1-25">
          <mxGeometry relative="1" as="geometry">
            <mxPoint x="1330" y="-430" as="targetPoint" />
            <Array as="points">
              <mxPoint x="1330" y="-420" />
              <mxPoint x="1331" y="-420" />
              <mxPoint x="1331" y="-422" />
            </Array>
          </mxGeometry>
        </mxCell>
        <mxCell id="bKVKFWOrkRCP9WEI6uu1-35" value="escape pressed" style="rhombus;whiteSpace=wrap;html=1;rounded=1;glass=0;strokeWidth=1;shadow=0;" vertex="1" parent="1">
          <mxGeometry x="1290" y="-390" width="80" height="80" as="geometry" />
        </mxCell>
        <mxCell id="bKVKFWOrkRCP9WEI6uu1-45" style="edgeStyle=orthogonalEdgeStyle;rounded=0;orthogonalLoop=1;jettySize=auto;html=1;entryX=0.5;entryY=1;entryDx=0;entryDy=0;" edge="1" parent="1">
          <mxGeometry relative="1" as="geometry">
            <mxPoint x="1370" y="-352" as="sourcePoint" />
            <mxPoint x="1130" y="-322" as="targetPoint" />
            <Array as="points">
              <mxPoint x="1440" y="-352" />
              <mxPoint x="1440" y="-351" />
              <mxPoint x="1470" y="-351" />
              <mxPoint x="1470" y="-282" />
              <mxPoint x="1130" y="-282" />
            </Array>
          </mxGeometry>
        </mxCell>
        <mxCell id="bKVKFWOrkRCP9WEI6uu1-46" value="No" style="text;html=1;align=center;verticalAlign=middle;resizable=0;points=[];autosize=1;strokeColor=none;fillColor=none;" vertex="1" parent="1">
          <mxGeometry x="1430" y="-380" width="40" height="30" as="geometry" />
        </mxCell>
      </root>
    </mxGraphModel>
  </diagram>
  <diagram id="t9ncCTdiv2nbOx0GYwpJ" name="Level">
    <mxGraphModel dx="-266" dy="1924" grid="1" gridSize="10" guides="1" tooltips="1" connect="1" arrows="1" fold="1" page="1" pageScale="1" pageWidth="850" pageHeight="1100" math="0" shadow="0">
      <root>
        <mxCell id="0" />
        <mxCell id="1" parent="0" />
        <mxCell id="RqA9k021UbD_Y9-CoamX-3" value="" style="edgeStyle=orthogonalEdgeStyle;rounded=0;orthogonalLoop=1;jettySize=auto;html=1;" parent="1" source="RqA9k021UbD_Y9-CoamX-5" target="RqA9k021UbD_Y9-CoamX-6" edge="1">
          <mxGeometry relative="1" as="geometry" />
        </mxCell>
        <mxCell id="RqA9k021UbD_Y9-CoamX-4" style="edgeStyle=orthogonalEdgeStyle;rounded=0;orthogonalLoop=1;jettySize=auto;html=1;" parent="1" source="RqA9k021UbD_Y9-CoamX-5" target="RqA9k021UbD_Y9-CoamX-11" edge="1">
          <mxGeometry relative="1" as="geometry" />
        </mxCell>
        <mxCell id="RqA9k021UbD_Y9-CoamX-5" value="Level completed" style="rhombus;whiteSpace=wrap;html=1;rounded=1;glass=0;strokeWidth=1;shadow=0;" parent="1" vertex="1">
          <mxGeometry x="2110" y="-640" width="100" height="80" as="geometry" />
        </mxCell>
        <mxCell id="RqA9k021UbD_Y9-CoamX-37" style="edgeStyle=orthogonalEdgeStyle;rounded=0;orthogonalLoop=1;jettySize=auto;html=1;entryX=1;entryY=0.5;entryDx=0;entryDy=0;" parent="1" source="RqA9k021UbD_Y9-CoamX-6" target="RqA9k021UbD_Y9-CoamX-34" edge="1">
          <mxGeometry relative="1" as="geometry">
            <Array as="points">
              <mxPoint x="2570" y="-600" />
              <mxPoint x="2570" y="-340" />
            </Array>
          </mxGeometry>
        </mxCell>
        <mxCell id="RqA9k021UbD_Y9-CoamX-6" value="level.Completed()" style="whiteSpace=wrap;html=1;rounded=1;glass=0;strokeWidth=1;shadow=0;" parent="1" vertex="1">
          <mxGeometry x="2301" y="-630" width="120" height="60" as="geometry" />
        </mxCell>
        <mxCell id="RqA9k021UbD_Y9-CoamX-7" value="Yes" style="text;html=1;align=center;verticalAlign=middle;resizable=0;points=[];autosize=1;strokeColor=none;fillColor=none;" parent="1" vertex="1">
          <mxGeometry x="2261" y="-630" width="40" height="30" as="geometry" />
        </mxCell>
        <mxCell id="-7tCgm44X3ESimGLVWsZ-3" style="edgeStyle=orthogonalEdgeStyle;rounded=0;orthogonalLoop=1;jettySize=auto;html=1;entryX=0.5;entryY=0;entryDx=0;entryDy=0;" edge="1" parent="1" source="RqA9k021UbD_Y9-CoamX-9" target="-7tCgm44X3ESimGLVWsZ-1">
          <mxGeometry relative="1" as="geometry" />
        </mxCell>
        <UserObject label="map.Update()" link="data:page/id,C5RBs43oDa-KdzZeNtuy" id="RqA9k021UbD_Y9-CoamX-9">
          <mxCell style="whiteSpace=wrap;html=1;rounded=1;glass=0;strokeWidth=1;shadow=0;" parent="1" vertex="1">
            <mxGeometry x="2100" y="-900" width="120" height="60" as="geometry" />
          </mxCell>
        </UserObject>
        <mxCell id="RqA9k021UbD_Y9-CoamX-10" value="" style="edgeStyle=orthogonalEdgeStyle;rounded=0;orthogonalLoop=1;jettySize=auto;html=1;" parent="1" source="RqA9k021UbD_Y9-CoamX-11" target="RqA9k021UbD_Y9-CoamX-12" edge="1">
          <mxGeometry relative="1" as="geometry" />
        </mxCell>
        <mxCell id="RqA9k021UbD_Y9-CoamX-35" style="edgeStyle=orthogonalEdgeStyle;rounded=0;orthogonalLoop=1;jettySize=auto;html=1;entryX=0.5;entryY=0;entryDx=0;entryDy=0;" parent="1" source="RqA9k021UbD_Y9-CoamX-11" target="RqA9k021UbD_Y9-CoamX-34" edge="1">
          <mxGeometry relative="1" as="geometry" />
        </mxCell>
        <mxCell id="RqA9k021UbD_Y9-CoamX-11" value="game over" style="rhombus;whiteSpace=wrap;html=1;rounded=1;glass=0;strokeWidth=1;shadow=0;" parent="1" vertex="1">
          <mxGeometry x="2110" y="-520" width="100" height="80" as="geometry" />
        </mxCell>
        <mxCell id="RqA9k021UbD_Y9-CoamX-33" style="edgeStyle=orthogonalEdgeStyle;rounded=0;orthogonalLoop=1;jettySize=auto;html=1;entryX=0;entryY=0.5;entryDx=0;entryDy=0;" parent="1" source="RqA9k021UbD_Y9-CoamX-12" target="RqA9k021UbD_Y9-CoamX-31" edge="1">
          <mxGeometry relative="1" as="geometry" />
        </mxCell>
        <mxCell id="RqA9k021UbD_Y9-CoamX-12" value="level.Lost()" style="whiteSpace=wrap;html=1;rounded=1;glass=0;strokeWidth=1;shadow=0;" parent="1" vertex="1">
          <mxGeometry x="2301" y="-510" width="120" height="60" as="geometry" />
        </mxCell>
        <mxCell id="RqA9k021UbD_Y9-CoamX-13" value="Yes" style="text;html=1;align=center;verticalAlign=middle;resizable=0;points=[];autosize=1;strokeColor=none;fillColor=none;" parent="1" vertex="1">
          <mxGeometry x="2261" y="-510" width="40" height="30" as="geometry" />
        </mxCell>
        <mxCell id="RqA9k021UbD_Y9-CoamX-14" value="No" style="text;html=1;align=center;verticalAlign=middle;resizable=0;points=[];autosize=1;strokeColor=none;fillColor=none;" parent="1" vertex="1">
          <mxGeometry x="2160" y="-540" width="40" height="30" as="geometry" />
        </mxCell>
        <mxCell id="RqA9k021UbD_Y9-CoamX-30" style="edgeStyle=orthogonalEdgeStyle;rounded=0;orthogonalLoop=1;jettySize=auto;html=1;entryX=0.5;entryY=0;entryDx=0;entryDy=0;" parent="1" source="RqA9k021UbD_Y9-CoamX-29" target="RqA9k021UbD_Y9-CoamX-9" edge="1">
          <mxGeometry relative="1" as="geometry" />
        </mxCell>
        <mxCell id="RqA9k021UbD_Y9-CoamX-29" value="Start" style="ellipse;whiteSpace=wrap;html=1;" parent="1" vertex="1">
          <mxGeometry x="2120" y="-1020" width="80" height="80" as="geometry" />
        </mxCell>
        <mxCell id="RqA9k021UbD_Y9-CoamX-31" value="End" style="ellipse;whiteSpace=wrap;html=1;" parent="1" vertex="1">
          <mxGeometry x="2460" y="-520" width="80" height="80" as="geometry" />
        </mxCell>
        <mxCell id="RqA9k021UbD_Y9-CoamX-34" value="Continue" style="ellipse;whiteSpace=wrap;html=1;" parent="1" vertex="1">
          <mxGeometry x="2120" y="-380" width="80" height="80" as="geometry" />
        </mxCell>
        <mxCell id="VBzQNkxKU42e9ioIjsCN-2" value="Load next level" style="rounded=1;whiteSpace=wrap;html=1;" parent="1" vertex="1">
          <mxGeometry x="2360" y="-370" width="120" height="60" as="geometry" />
        </mxCell>
        <mxCell id="-7tCgm44X3ESimGLVWsZ-2" style="edgeStyle=orthogonalEdgeStyle;rounded=0;orthogonalLoop=1;jettySize=auto;html=1;entryX=0.5;entryY=0;entryDx=0;entryDy=0;" edge="1" parent="1" source="-7tCgm44X3ESimGLVWsZ-1" target="RqA9k021UbD_Y9-CoamX-5">
          <mxGeometry relative="1" as="geometry" />
        </mxCell>
        <UserObject label="status.Update()" link="data:page/id,UdgeIq5a2K-GwayBq-m1" id="-7tCgm44X3ESimGLVWsZ-1">
          <mxCell style="whiteSpace=wrap;html=1;rounded=1;glass=0;strokeWidth=1;shadow=0;" vertex="1" parent="1">
            <mxGeometry x="2100" y="-780" width="120" height="60" as="geometry" />
          </mxCell>
        </UserObject>
      </root>
    </mxGraphModel>
  </diagram>
  <diagram id="C5RBs43oDa-KdzZeNtuy" name="Map">
    <mxGraphModel dx="12" dy="1654" grid="1" gridSize="10" guides="1" tooltips="1" connect="1" arrows="1" fold="1" page="1" pageScale="1" pageWidth="827" pageHeight="1169" math="0" shadow="0">
      <root>
        <mxCell id="WIyWlLk6GJQsqaUBKTNV-0" />
        <mxCell id="WIyWlLk6GJQsqaUBKTNV-1" parent="WIyWlLk6GJQsqaUBKTNV-0" />
        <mxCell id="EmdbjM42KqS_1ywrOT4v-28" style="edgeStyle=orthogonalEdgeStyle;rounded=0;orthogonalLoop=1;jettySize=auto;html=1;" parent="WIyWlLk6GJQsqaUBKTNV-1" edge="1">
          <mxGeometry relative="1" as="geometry">
            <mxPoint x="1050" y="-1080" as="sourcePoint" />
            <mxPoint x="1050" y="-1010" as="targetPoint" />
          </mxGeometry>
        </mxCell>
        <mxCell id="EmdbjM42KqS_1ywrOT4v-32" style="edgeStyle=orthogonalEdgeStyle;rounded=0;orthogonalLoop=1;jettySize=auto;html=1;entryX=0.5;entryY=0;entryDx=0;entryDy=0;" parent="WIyWlLk6GJQsqaUBKTNV-1" edge="1">
          <mxGeometry relative="1" as="geometry">
            <mxPoint x="1050" y="-460" as="sourcePoint" />
            <mxPoint x="1050" y="-400" as="targetPoint" />
          </mxGeometry>
        </mxCell>
        <mxCell id="EmdbjM42KqS_1ywrOT4v-33" style="edgeStyle=orthogonalEdgeStyle;rounded=0;orthogonalLoop=1;jettySize=auto;html=1;entryX=0.5;entryY=0;entryDx=0;entryDy=0;" parent="WIyWlLk6GJQsqaUBKTNV-1" edge="1">
          <mxGeometry relative="1" as="geometry">
            <mxPoint x="1050" y="-350" as="sourcePoint" />
            <mxPoint x="1050" y="-290" as="targetPoint" />
          </mxGeometry>
        </mxCell>
        <mxCell id="5ol4xwYGMPu530JKfJ9x-2" style="edgeStyle=orthogonalEdgeStyle;rounded=0;orthogonalLoop=1;jettySize=auto;html=1;" parent="WIyWlLk6GJQsqaUBKTNV-1" target="5ol4xwYGMPu530JKfJ9x-1" edge="1">
          <mxGeometry relative="1" as="geometry">
            <mxPoint x="1050" y="-240" as="sourcePoint" />
          </mxGeometry>
        </mxCell>
        <mxCell id="5ol4xwYGMPu530JKfJ9x-0" value="Start" style="ellipse;whiteSpace=wrap;html=1;" parent="WIyWlLk6GJQsqaUBKTNV-1" vertex="1">
          <mxGeometry x="1010" y="-1160" width="80" height="80" as="geometry" />
        </mxCell>
        <mxCell id="5ol4xwYGMPu530JKfJ9x-1" value="Continue" style="ellipse;whiteSpace=wrap;html=1;" parent="WIyWlLk6GJQsqaUBKTNV-1" vertex="1">
          <mxGeometry x="1010" y="-165" width="80" height="80" as="geometry" />
        </mxCell>
        <mxCell id="5ol4xwYGMPu530JKfJ9x-9" value="" style="edgeStyle=orthogonalEdgeStyle;rounded=0;orthogonalLoop=1;jettySize=auto;html=1;" parent="WIyWlLk6GJQsqaUBKTNV-1" source="5ol4xwYGMPu530JKfJ9x-3" target="5ol4xwYGMPu530JKfJ9x-8" edge="1">
          <mxGeometry relative="1" as="geometry" />
        </mxCell>
        <UserObject label="Player1.Update()" link="data:page/id,x2Xf-noMIVjytbBM-yx0" id="5ol4xwYGMPu530JKfJ9x-3">
          <mxCell style="rounded=1;whiteSpace=wrap;html=1;" parent="WIyWlLk6GJQsqaUBKTNV-1" vertex="1">
            <mxGeometry x="990" y="-1010" width="120" height="60" as="geometry" />
          </mxCell>
        </UserObject>
        <mxCell id="5ol4xwYGMPu530JKfJ9x-13" value="" style="edgeStyle=orthogonalEdgeStyle;rounded=0;orthogonalLoop=1;jettySize=auto;html=1;" parent="WIyWlLk6GJQsqaUBKTNV-1" source="5ol4xwYGMPu530JKfJ9x-8" target="5ol4xwYGMPu530JKfJ9x-12" edge="1">
          <mxGeometry relative="1" as="geometry" />
        </mxCell>
        <mxCell id="Ji8nLwiqRfXTrskwAjpn-1" style="edgeStyle=orthogonalEdgeStyle;rounded=0;orthogonalLoop=1;jettySize=auto;html=1;entryX=0.5;entryY=0;entryDx=0;entryDy=0;" edge="1" parent="WIyWlLk6GJQsqaUBKTNV-1" source="5ol4xwYGMPu530JKfJ9x-8" target="Ji8nLwiqRfXTrskwAjpn-0">
          <mxGeometry relative="1" as="geometry" />
        </mxCell>
        <mxCell id="5ol4xwYGMPu530JKfJ9x-8" value="Player 2 exist" style="rhombus;whiteSpace=wrap;html=1;rounded=1;" parent="WIyWlLk6GJQsqaUBKTNV-1" vertex="1">
          <mxGeometry x="1010" y="-907.5" width="80" height="80" as="geometry" />
        </mxCell>
        <mxCell id="YgCIeMkA4qhX0c5tzVHY-0" style="edgeStyle=orthogonalEdgeStyle;rounded=0;orthogonalLoop=1;jettySize=auto;html=1;entryX=1;entryY=0.5;entryDx=0;entryDy=0;" edge="1" parent="WIyWlLk6GJQsqaUBKTNV-1" source="5ol4xwYGMPu530JKfJ9x-12" target="Ji8nLwiqRfXTrskwAjpn-0">
          <mxGeometry relative="1" as="geometry">
            <Array as="points">
              <mxPoint x="1290" y="-867" />
              <mxPoint x="1290" y="-770" />
            </Array>
          </mxGeometry>
        </mxCell>
        <UserObject label="Player2.Update()" link="data:page/id,x2Xf-noMIVjytbBM-yx0" id="5ol4xwYGMPu530JKfJ9x-12">
          <mxCell style="whiteSpace=wrap;html=1;rounded=1;" parent="WIyWlLk6GJQsqaUBKTNV-1" vertex="1">
            <mxGeometry x="1150" y="-897.5" width="120" height="60" as="geometry" />
          </mxCell>
        </UserObject>
        <mxCell id="5ol4xwYGMPu530JKfJ9x-15" value="Yes" style="text;html=1;align=center;verticalAlign=middle;resizable=0;points=[];autosize=1;strokeColor=none;fillColor=none;" parent="WIyWlLk6GJQsqaUBKTNV-1" vertex="1">
          <mxGeometry x="1110" y="-892.5" width="40" height="30" as="geometry" />
        </mxCell>
        <mxCell id="QzCxIhJ0sZerpO2tjIAu-11" style="edgeStyle=orthogonalEdgeStyle;rounded=0;orthogonalLoop=1;jettySize=auto;html=1;entryX=0.5;entryY=0;entryDx=0;entryDy=0;" parent="WIyWlLk6GJQsqaUBKTNV-1" source="5ol4xwYGMPu530JKfJ9x-16" target="QzCxIhJ0sZerpO2tjIAu-0" edge="1">
          <mxGeometry relative="1" as="geometry" />
        </mxCell>
        <UserObject label="Bullet.Update()" link="data:page/id,_QlmrNRKgv7RQ7gVtxN9" Scope="For all 5 different enemy tank arrays" id="5ol4xwYGMPu530JKfJ9x-16">
          <mxCell style="rounded=1;whiteSpace=wrap;html=1;" parent="WIyWlLk6GJQsqaUBKTNV-1" vertex="1">
            <mxGeometry x="990" y="-710" width="120" height="60" as="geometry" />
          </mxCell>
        </UserObject>
        <UserObject label="BrickBlock.Update()" link="data:page/id,2D6l4B18RfKBPpU3M8Rt" id="5ol4xwYGMPu530JKfJ9x-18">
          <mxCell style="rounded=1;whiteSpace=wrap;html=1;" parent="WIyWlLk6GJQsqaUBKTNV-1" vertex="1">
            <mxGeometry x="990" y="-490" width="120" height="60" as="geometry" />
          </mxCell>
        </UserObject>
        <UserObject label="SteelBlock.Update()" link="data:page/id,2D6l4B18RfKBPpU3M8Rt" id="5ol4xwYGMPu530JKfJ9x-19">
          <mxCell style="rounded=1;whiteSpace=wrap;html=1;" parent="WIyWlLk6GJQsqaUBKTNV-1" vertex="1">
            <mxGeometry x="990" y="-390" width="120" height="60" as="geometry" />
          </mxCell>
        </UserObject>
        <UserObject label="PowerUp.Update()" link="data:page/id,NltwswK93lbV8zqneiZr" id="5ol4xwYGMPu530JKfJ9x-20">
          <mxCell style="rounded=1;whiteSpace=wrap;html=1;" parent="WIyWlLk6GJQsqaUBKTNV-1" vertex="1">
            <mxGeometry x="990" y="-290" width="120" height="60" as="geometry" />
          </mxCell>
        </UserObject>
        <mxCell id="QzCxIhJ0sZerpO2tjIAu-12" style="edgeStyle=orthogonalEdgeStyle;rounded=0;orthogonalLoop=1;jettySize=auto;html=1;entryX=0.5;entryY=0;entryDx=0;entryDy=0;" parent="WIyWlLk6GJQsqaUBKTNV-1" source="QzCxIhJ0sZerpO2tjIAu-0" target="5ol4xwYGMPu530JKfJ9x-18" edge="1">
          <mxGeometry relative="1" as="geometry" />
        </mxCell>
        <UserObject label="Base.Update()" link="data:page/id,RNOtlEpNkN_X_S9FSB3h" id="QzCxIhJ0sZerpO2tjIAu-0">
          <mxCell style="rounded=1;whiteSpace=wrap;html=1;" parent="WIyWlLk6GJQsqaUBKTNV-1" vertex="1">
            <mxGeometry x="990" y="-594" width="120" height="60" as="geometry" />
          </mxCell>
        </UserObject>
        <mxCell id="QzCxIhJ0sZerpO2tjIAu-2" value="No" style="text;html=1;align=center;verticalAlign=middle;resizable=0;points=[];autosize=1;strokeColor=none;fillColor=none;" parent="WIyWlLk6GJQsqaUBKTNV-1" vertex="1">
          <mxGeometry x="1040" y="-837.5" width="40" height="30" as="geometry" />
        </mxCell>
        <mxCell id="Ji8nLwiqRfXTrskwAjpn-2" style="edgeStyle=orthogonalEdgeStyle;rounded=0;orthogonalLoop=1;jettySize=auto;html=1;" edge="1" parent="WIyWlLk6GJQsqaUBKTNV-1" source="Ji8nLwiqRfXTrskwAjpn-0" target="5ol4xwYGMPu530JKfJ9x-16">
          <mxGeometry relative="1" as="geometry" />
        </mxCell>
        <UserObject label="Enemy.Update()" link="data:page/id,EPs8V_hxKz09cWETlHJX" Scope="For all 5 different enemy tank arrays" id="Ji8nLwiqRfXTrskwAjpn-0">
          <mxCell style="rounded=1;whiteSpace=wrap;html=1;" vertex="1" parent="WIyWlLk6GJQsqaUBKTNV-1">
            <mxGeometry x="990" y="-800" width="120" height="60" as="geometry" />
          </mxCell>
        </UserObject>
      </root>
    </mxGraphModel>
  </diagram>
  <diagram id="x2Xf-noMIVjytbBM-yx0" name="Player">
    <mxGraphModel dx="1837" dy="2771" grid="1" gridSize="10" guides="1" tooltips="1" connect="1" arrows="1" fold="1" page="1" pageScale="1" pageWidth="850" pageHeight="1100" math="0" shadow="0">
      <root>
        <mxCell id="0" />
        <mxCell id="1" parent="0" />
        <mxCell id="8VQ5XFuC3viOlhqziwZA-2" style="edgeStyle=orthogonalEdgeStyle;rounded=0;orthogonalLoop=1;jettySize=auto;html=1;entryX=0;entryY=0.5;entryDx=0;entryDy=0;" parent="1" source="8VQ5XFuC3viOlhqziwZA-3" target="8VQ5XFuC3viOlhqziwZA-7" edge="1">
          <mxGeometry relative="1" as="geometry">
            <mxPoint x="279.5" y="-532" as="targetPoint" />
          </mxGeometry>
        </mxCell>
        <mxCell id="fxGL98BY1sFY6GuzSAUi-57" style="edgeStyle=orthogonalEdgeStyle;rounded=0;orthogonalLoop=1;jettySize=auto;html=1;" parent="1" source="8VQ5XFuC3viOlhqziwZA-3" target="8VQ5XFuC3viOlhqziwZA-10" edge="1">
          <mxGeometry relative="1" as="geometry" />
        </mxCell>
        <mxCell id="8VQ5XFuC3viOlhqziwZA-3" value="Collision with&amp;nbsp;&lt;div&gt;boundary, brick, steel, water&amp;nbsp;&lt;br&gt;or enemy&lt;/div&gt;" style="rhombus;whiteSpace=wrap;html=1;" parent="1" vertex="1">
          <mxGeometry x="-0.5" y="-580" width="210" height="95" as="geometry" />
        </mxCell>
        <mxCell id="8VQ5XFuC3viOlhqziwZA-4" value="Yes" style="text;html=1;align=center;verticalAlign=middle;resizable=0;points=[];autosize=1;strokeColor=none;fillColor=none;" parent="1" vertex="1">
          <mxGeometry x="249.5" y="-560" width="40" height="30" as="geometry" />
        </mxCell>
        <mxCell id="fxGL98BY1sFY6GuzSAUi-58" style="edgeStyle=orthogonalEdgeStyle;rounded=0;orthogonalLoop=1;jettySize=auto;html=1;entryX=0.5;entryY=0;entryDx=0;entryDy=0;" parent="1" source="8VQ5XFuC3viOlhqziwZA-7" target="8VQ5XFuC3viOlhqziwZA-10" edge="1">
          <mxGeometry relative="1" as="geometry">
            <Array as="points">
              <mxPoint x="530" y="-532" />
              <mxPoint x="530" y="-440" />
            </Array>
          </mxGeometry>
        </mxCell>
        <mxCell id="8VQ5XFuC3viOlhqziwZA-7" value="player.SetCollision()" style="rounded=1;whiteSpace=wrap;html=1;" parent="1" vertex="1">
          <mxGeometry x="289.5" y="-562.5" width="210" height="60" as="geometry" />
        </mxCell>
        <mxCell id="8VQ5XFuC3viOlhqziwZA-8" style="edgeStyle=orthogonalEdgeStyle;rounded=0;orthogonalLoop=1;jettySize=auto;html=1;" parent="1" source="8VQ5XFuC3viOlhqziwZA-10" edge="1">
          <mxGeometry relative="1" as="geometry">
            <mxPoint x="230" y="-392.5" as="targetPoint" />
          </mxGeometry>
        </mxCell>
        <mxCell id="8VQ5XFuC3viOlhqziwZA-9" style="edgeStyle=orthogonalEdgeStyle;rounded=0;orthogonalLoop=1;jettySize=auto;html=1;" parent="1" source="8VQ5XFuC3viOlhqziwZA-10" edge="1">
          <mxGeometry relative="1" as="geometry">
            <mxPoint x="105" y="-270" as="targetPoint" />
          </mxGeometry>
        </mxCell>
        <mxCell id="8VQ5XFuC3viOlhqziwZA-10" value="Collision with&lt;br&gt;ice" style="rhombus;whiteSpace=wrap;html=1;" parent="1" vertex="1">
          <mxGeometry x="57.5" y="-440" width="95" height="95" as="geometry" />
        </mxCell>
        <mxCell id="8VQ5XFuC3viOlhqziwZA-11" value="Yes" style="text;html=1;align=center;verticalAlign=middle;resizable=0;points=[];autosize=1;strokeColor=none;fillColor=none;" parent="1" vertex="1">
          <mxGeometry x="190" y="-420" width="40" height="30" as="geometry" />
        </mxCell>
        <mxCell id="fxGL98BY1sFY6GuzSAUi-74" style="edgeStyle=orthogonalEdgeStyle;rounded=0;orthogonalLoop=1;jettySize=auto;html=1;" parent="1" source="8VQ5XFuC3viOlhqziwZA-13" target="8VQ5XFuC3viOlhqziwZA-26" edge="1">
          <mxGeometry relative="1" as="geometry">
            <Array as="points">
              <mxPoint x="480" y="-392" />
              <mxPoint x="480" y="-270" />
            </Array>
          </mxGeometry>
        </mxCell>
        <mxCell id="8VQ5XFuC3viOlhqziwZA-13" value="player.CollsionWithIceBlock()" style="rounded=1;whiteSpace=wrap;html=1;" parent="1" vertex="1">
          <mxGeometry x="230" y="-422.5" width="210" height="60" as="geometry" />
        </mxCell>
        <mxCell id="8VQ5XFuC3viOlhqziwZA-14" style="edgeStyle=orthogonalEdgeStyle;rounded=0;orthogonalLoop=1;jettySize=auto;html=1;" parent="1" source="8VQ5XFuC3viOlhqziwZA-16" edge="1">
          <mxGeometry relative="1" as="geometry">
            <mxPoint x="230" y="-62.5" as="targetPoint" />
          </mxGeometry>
        </mxCell>
        <mxCell id="8VQ5XFuC3viOlhqziwZA-15" style="edgeStyle=orthogonalEdgeStyle;rounded=0;orthogonalLoop=1;jettySize=auto;html=1;" parent="1" source="8VQ5XFuC3viOlhqziwZA-16" edge="1">
          <mxGeometry relative="1" as="geometry">
            <mxPoint x="105" y="60" as="targetPoint" />
          </mxGeometry>
        </mxCell>
        <mxCell id="8VQ5XFuC3viOlhqziwZA-16" value="Collision with&lt;br&gt;player bullet" style="rhombus;whiteSpace=wrap;html=1;" parent="1" vertex="1">
          <mxGeometry x="57.5" y="-110" width="95" height="95" as="geometry" />
        </mxCell>
        <mxCell id="8VQ5XFuC3viOlhqziwZA-17" value="Yes" style="text;html=1;align=center;verticalAlign=middle;resizable=0;points=[];autosize=1;strokeColor=none;fillColor=none;" parent="1" vertex="1">
          <mxGeometry x="190" y="-90" width="40" height="30" as="geometry" />
        </mxCell>
        <mxCell id="fxGL98BY1sFY6GuzSAUi-84" style="edgeStyle=orthogonalEdgeStyle;rounded=0;orthogonalLoop=1;jettySize=auto;html=1;" parent="1" source="8VQ5XFuC3viOlhqziwZA-18" target="8VQ5XFuC3viOlhqziwZA-20" edge="1">
          <mxGeometry relative="1" as="geometry">
            <Array as="points">
              <mxPoint x="480" y="-62" />
              <mxPoint x="480" y="60" />
            </Array>
          </mxGeometry>
        </mxCell>
        <mxCell id="8VQ5XFuC3viOlhqziwZA-18" value="player.Freeze()" style="rounded=1;whiteSpace=wrap;html=1;" parent="1" vertex="1">
          <mxGeometry x="230" y="-92.5" width="210" height="60" as="geometry" />
        </mxCell>
        <mxCell id="8VQ5XFuC3viOlhqziwZA-19" style="edgeStyle=orthogonalEdgeStyle;rounded=0;orthogonalLoop=1;jettySize=auto;html=1;" parent="1" source="8VQ5XFuC3viOlhqziwZA-20" edge="1">
          <mxGeometry relative="1" as="geometry">
            <mxPoint x="230" y="107.5" as="targetPoint" />
          </mxGeometry>
        </mxCell>
        <mxCell id="8VQ5XFuC3viOlhqziwZA-20" value="Collision with&lt;br&gt;enemy bullet" style="rhombus;whiteSpace=wrap;html=1;" parent="1" vertex="1">
          <mxGeometry x="57.5" y="60" width="95" height="95" as="geometry" />
        </mxCell>
        <mxCell id="8VQ5XFuC3viOlhqziwZA-21" value="Yes" style="text;html=1;align=center;verticalAlign=middle;resizable=0;points=[];autosize=1;strokeColor=none;fillColor=none;" parent="1" vertex="1">
          <mxGeometry x="190" y="80" width="40" height="30" as="geometry" />
        </mxCell>
        <mxCell id="8VQ5XFuC3viOlhqziwZA-22" value="" style="edgeStyle=orthogonalEdgeStyle;rounded=0;orthogonalLoop=1;jettySize=auto;html=1;" parent="1" source="8VQ5XFuC3viOlhqziwZA-23" target="8VQ5XFuC3viOlhqziwZA-33" edge="1">
          <mxGeometry relative="1" as="geometry" />
        </mxCell>
        <mxCell id="8VQ5XFuC3viOlhqziwZA-23" value="player.Destroy()" style="rounded=1;whiteSpace=wrap;html=1;" parent="1" vertex="1">
          <mxGeometry x="230" y="77.5" width="210" height="60" as="geometry" />
        </mxCell>
        <mxCell id="8VQ5XFuC3viOlhqziwZA-24" style="edgeStyle=orthogonalEdgeStyle;rounded=0;orthogonalLoop=1;jettySize=auto;html=1;" parent="1" source="8VQ5XFuC3viOlhqziwZA-26" edge="1">
          <mxGeometry relative="1" as="geometry">
            <mxPoint x="230" y="-222.5" as="targetPoint" />
          </mxGeometry>
        </mxCell>
        <mxCell id="8VQ5XFuC3viOlhqziwZA-25" value="" style="edgeStyle=orthogonalEdgeStyle;rounded=0;orthogonalLoop=1;jettySize=auto;html=1;" parent="1" source="8VQ5XFuC3viOlhqziwZA-26" edge="1">
          <mxGeometry relative="1" as="geometry">
            <mxPoint x="105" y="-110" as="targetPoint" />
          </mxGeometry>
        </mxCell>
        <mxCell id="8VQ5XFuC3viOlhqziwZA-26" value="Power up taken" style="rhombus;whiteSpace=wrap;html=1;" parent="1" vertex="1">
          <mxGeometry x="57.5" y="-270" width="95" height="95" as="geometry" />
        </mxCell>
        <mxCell id="8VQ5XFuC3viOlhqziwZA-27" value="Yes" style="text;html=1;align=center;verticalAlign=middle;resizable=0;points=[];autosize=1;strokeColor=none;fillColor=none;" parent="1" vertex="1">
          <mxGeometry x="190" y="-250" width="40" height="30" as="geometry" />
        </mxCell>
        <mxCell id="fxGL98BY1sFY6GuzSAUi-75" style="edgeStyle=orthogonalEdgeStyle;rounded=0;orthogonalLoop=1;jettySize=auto;html=1;entryX=0.5;entryY=0;entryDx=0;entryDy=0;" parent="1" source="8VQ5XFuC3viOlhqziwZA-28" target="8VQ5XFuC3viOlhqziwZA-16" edge="1">
          <mxGeometry relative="1" as="geometry">
            <Array as="points">
              <mxPoint x="480" y="-222" />
              <mxPoint x="480" y="-110" />
            </Array>
          </mxGeometry>
        </mxCell>
        <mxCell id="8VQ5XFuC3viOlhqziwZA-28" value="player.SetPowerUp()" style="rounded=1;whiteSpace=wrap;html=1;" parent="1" vertex="1">
          <mxGeometry x="230" y="-252.5" width="210" height="60" as="geometry" />
        </mxCell>
        <mxCell id="8VQ5XFuC3viOlhqziwZA-29" style="edgeStyle=orthogonalEdgeStyle;rounded=0;orthogonalLoop=1;jettySize=auto;html=1;" parent="1" edge="1">
          <mxGeometry relative="1" as="geometry">
            <mxPoint x="105" y="230" as="targetPoint" />
            <mxPoint x="105" y="155" as="sourcePoint" />
          </mxGeometry>
        </mxCell>
        <mxCell id="8VQ5XFuC3viOlhqziwZA-31" value="" style="edgeStyle=orthogonalEdgeStyle;rounded=0;orthogonalLoop=1;jettySize=auto;html=1;" parent="1" source="8VQ5XFuC3viOlhqziwZA-33" target="8VQ5XFuC3viOlhqziwZA-36" edge="1">
          <mxGeometry relative="1" as="geometry" />
        </mxCell>
        <mxCell id="NFFfUiEcCYoVSYxX8CfE-7" style="edgeStyle=orthogonalEdgeStyle;rounded=0;orthogonalLoop=1;jettySize=auto;html=1;entryX=1;entryY=0.5;entryDx=0;entryDy=0;" parent="1" source="8VQ5XFuC3viOlhqziwZA-33" target="C6x4OvKV6SMJQXXRNCM5-3" edge="1">
          <mxGeometry relative="1" as="geometry">
            <Array as="points">
              <mxPoint x="530" y="270" />
            </Array>
          </mxGeometry>
        </mxCell>
        <mxCell id="8VQ5XFuC3viOlhqziwZA-33" value="player lives = 0" style="rhombus;whiteSpace=wrap;html=1;rounded=1;" parent="1" vertex="1">
          <mxGeometry x="480" y="67.5" width="100" height="80" as="geometry" />
        </mxCell>
        <mxCell id="8VQ5XFuC3viOlhqziwZA-34" value="" style="edgeStyle=orthogonalEdgeStyle;rounded=0;orthogonalLoop=1;jettySize=auto;html=1;" parent="1" target="8VQ5XFuC3viOlhqziwZA-36" edge="1">
          <mxGeometry relative="1" as="geometry">
            <mxPoint x="310" y="172.5" as="targetPoint" />
            <mxPoint x="650" y="110" as="sourcePoint" />
            <Array as="points">
              <mxPoint x="691" y="110" />
            </Array>
          </mxGeometry>
        </mxCell>
        <mxCell id="NFFfUiEcCYoVSYxX8CfE-9" style="edgeStyle=orthogonalEdgeStyle;rounded=0;orthogonalLoop=1;jettySize=auto;html=1;entryX=1;entryY=0.5;entryDx=0;entryDy=0;" parent="1" source="8VQ5XFuC3viOlhqziwZA-36" target="C6x4OvKV6SMJQXXRNCM5-3" edge="1">
          <mxGeometry relative="1" as="geometry">
            <Array as="points">
              <mxPoint x="770" y="108" />
              <mxPoint x="770" y="270" />
            </Array>
          </mxGeometry>
        </mxCell>
        <mxCell id="8VQ5XFuC3viOlhqziwZA-36" value="player.Over()" style="rounded=1;whiteSpace=wrap;html=1;" parent="1" vertex="1">
          <mxGeometry x="630" y="77.5" width="120" height="60" as="geometry" />
        </mxCell>
        <mxCell id="8VQ5XFuC3viOlhqziwZA-37" value="Yes" style="text;html=1;align=center;verticalAlign=middle;resizable=0;points=[];autosize=1;strokeColor=none;fillColor=none;" parent="1" vertex="1">
          <mxGeometry x="590" y="78" width="40" height="30" as="geometry" />
        </mxCell>
        <mxCell id="NFFfUiEcCYoVSYxX8CfE-3" style="edgeStyle=orthogonalEdgeStyle;rounded=0;orthogonalLoop=1;jettySize=auto;html=1;entryX=0.5;entryY=0;entryDx=0;entryDy=0;" parent="1" source="C6x4OvKV6SMJQXXRNCM5-2" target="NFFfUiEcCYoVSYxX8CfE-1" edge="1">
          <mxGeometry relative="1" as="geometry" />
        </mxCell>
        <mxCell id="C6x4OvKV6SMJQXXRNCM5-2" value="Start&lt;span style=&quot;color: rgba(0, 0, 0, 0); font-family: monospace; font-size: 0px; text-align: start; text-wrap: nowrap;&quot;&gt;%3CmxGraphModel%3E%3Croot%3E%3CmxCell%20id%3D%220%22%2F%3E%3CmxCell%20id%3D%221%22%20parent%3D%220%22%2F%3E%3CmxCell%20id%3D%222%22%20value%3D%22Base.Update()%22%20style%3D%22rounded%3D1%3BwhiteSpace%3Dwrap%3Bhtml%3D1%3B%22%20vertex%3D%221%22%20parent%3D%221%22%3E%3CmxGeometry%20x%3D%22990%22%20y%3D%22-732%22%20width%3D%22120%22%20height%3D%2260%22%20as%3D%22geometry%22%2F%3E%3C%2FmxCell%3E%3C%2Froot%3E%3C%2FmxGraphModel%3E&lt;/span&gt;" style="ellipse;whiteSpace=wrap;html=1;aspect=fixed;" parent="1" vertex="1">
          <mxGeometry x="65.5" y="-1480" width="80" height="80" as="geometry" />
        </mxCell>
        <mxCell id="C6x4OvKV6SMJQXXRNCM5-3" value="Continue" style="ellipse;whiteSpace=wrap;html=1;aspect=fixed;" parent="1" vertex="1">
          <mxGeometry x="64.5" y="230" width="80" height="80" as="geometry" />
        </mxCell>
        <mxCell id="fxGL98BY1sFY6GuzSAUi-11" value="" style="edgeStyle=orthogonalEdgeStyle;rounded=0;orthogonalLoop=1;jettySize=auto;html=1;" parent="1" source="fxGL98BY1sFY6GuzSAUi-5" target="fxGL98BY1sFY6GuzSAUi-10" edge="1">
          <mxGeometry relative="1" as="geometry" />
        </mxCell>
        <mxCell id="fxGL98BY1sFY6GuzSAUi-5" value="player over" style="rhombus;whiteSpace=wrap;html=1;" parent="1" vertex="1">
          <mxGeometry x="65" y="-1040" width="80" height="80" as="geometry" />
        </mxCell>
        <mxCell id="fxGL98BY1sFY6GuzSAUi-10" value="Continue" style="ellipse;whiteSpace=wrap;html=1;" parent="1" vertex="1">
          <mxGeometry x="225" y="-1040" width="80" height="80" as="geometry" />
        </mxCell>
        <mxCell id="fxGL98BY1sFY6GuzSAUi-12" value="Yes" style="text;html=1;align=center;verticalAlign=middle;resizable=0;points=[];autosize=1;strokeColor=none;fillColor=none;" parent="1" vertex="1">
          <mxGeometry x="185" y="-1030" width="40" height="30" as="geometry" />
        </mxCell>
        <mxCell id="fxGL98BY1sFY6GuzSAUi-35" value="No" style="text;html=1;align=center;verticalAlign=middle;resizable=0;points=[];autosize=1;strokeColor=none;fillColor=none;" parent="1" vertex="1">
          <mxGeometry x="105" y="-960" width="40" height="30" as="geometry" />
        </mxCell>
        <mxCell id="GQbGRJaTcOYWJL32N-Nd-1" value="" style="edgeStyle=orthogonalEdgeStyle;rounded=0;orthogonalLoop=1;jettySize=auto;html=1;" parent="1" source="fxGL98BY1sFY6GuzSAUi-5" edge="1">
          <mxGeometry relative="1" as="geometry">
            <mxPoint x="105" y="-960" as="sourcePoint" />
            <mxPoint x="105" y="-890" as="targetPoint" />
          </mxGeometry>
        </mxCell>
        <mxCell id="GQbGRJaTcOYWJL32N-Nd-5" value="" style="edgeStyle=orthogonalEdgeStyle;rounded=0;orthogonalLoop=1;jettySize=auto;html=1;" parent="1" source="GQbGRJaTcOYWJL32N-Nd-2" target="GQbGRJaTcOYWJL32N-Nd-4" edge="1">
          <mxGeometry relative="1" as="geometry" />
        </mxCell>
        <mxCell id="GQbGRJaTcOYWJL32N-Nd-29" style="edgeStyle=orthogonalEdgeStyle;rounded=0;orthogonalLoop=1;jettySize=auto;html=1;entryX=0.5;entryY=0;entryDx=0;entryDy=0;" parent="1" source="GQbGRJaTcOYWJL32N-Nd-2" target="GQbGRJaTcOYWJL32N-Nd-21" edge="1">
          <mxGeometry relative="1" as="geometry" />
        </mxCell>
        <mxCell id="GQbGRJaTcOYWJL32N-Nd-2" value="Player1" style="rhombus;whiteSpace=wrap;html=1;" parent="1" vertex="1">
          <mxGeometry x="64.5" y="-890" width="80" height="80" as="geometry" />
        </mxCell>
        <mxCell id="GQbGRJaTcOYWJL32N-Nd-14" value="" style="edgeStyle=orthogonalEdgeStyle;rounded=0;orthogonalLoop=1;jettySize=auto;html=1;" parent="1" source="GQbGRJaTcOYWJL32N-Nd-4" target="GQbGRJaTcOYWJL32N-Nd-13" edge="1">
          <mxGeometry relative="1" as="geometry" />
        </mxCell>
        <mxCell id="GQbGRJaTcOYWJL32N-Nd-33" style="edgeStyle=orthogonalEdgeStyle;rounded=0;orthogonalLoop=1;jettySize=auto;html=1;entryX=0.5;entryY=0;entryDx=0;entryDy=0;" parent="1" source="GQbGRJaTcOYWJL32N-Nd-4" target="8VQ5XFuC3viOlhqziwZA-3" edge="1">
          <mxGeometry relative="1" as="geometry">
            <Array as="points">
              <mxPoint x="370" y="-810" />
              <mxPoint x="370" y="-580" />
            </Array>
          </mxGeometry>
        </mxCell>
        <mxCell id="GQbGRJaTcOYWJL32N-Nd-4" value="Player2 &lt;br&gt;exists" style="rhombus;whiteSpace=wrap;html=1;" parent="1" vertex="1">
          <mxGeometry x="225.5" y="-890" width="80" height="80" as="geometry" />
        </mxCell>
        <mxCell id="GQbGRJaTcOYWJL32N-Nd-6" value="Yes" style="text;html=1;align=center;verticalAlign=middle;resizable=0;points=[];autosize=1;strokeColor=none;fillColor=none;" parent="1" vertex="1">
          <mxGeometry x="185.5" y="-880" width="40" height="30" as="geometry" />
        </mxCell>
        <mxCell id="GQbGRJaTcOYWJL32N-Nd-19" value="" style="edgeStyle=orthogonalEdgeStyle;rounded=0;orthogonalLoop=1;jettySize=auto;html=1;" parent="1" source="GQbGRJaTcOYWJL32N-Nd-13" target="GQbGRJaTcOYWJL32N-Nd-18" edge="1">
          <mxGeometry relative="1" as="geometry" />
        </mxCell>
        <mxCell id="GQbGRJaTcOYWJL32N-Nd-32" style="edgeStyle=orthogonalEdgeStyle;rounded=0;orthogonalLoop=1;jettySize=auto;html=1;entryX=0.5;entryY=0;entryDx=0;entryDy=0;" parent="1" source="GQbGRJaTcOYWJL32N-Nd-13" target="8VQ5XFuC3viOlhqziwZA-3" edge="1">
          <mxGeometry relative="1" as="geometry">
            <Array as="points">
              <mxPoint x="426" y="-580" />
            </Array>
          </mxGeometry>
        </mxCell>
        <mxCell id="GQbGRJaTcOYWJL32N-Nd-13" value="Collision with player 2" style="rhombus;whiteSpace=wrap;html=1;" parent="1" vertex="1">
          <mxGeometry x="375.5" y="-890" width="100" height="80" as="geometry" />
        </mxCell>
        <mxCell id="GQbGRJaTcOYWJL32N-Nd-15" value="Yes" style="text;html=1;align=center;verticalAlign=middle;resizable=0;points=[];autosize=1;strokeColor=none;fillColor=none;" parent="1" vertex="1">
          <mxGeometry x="345.5" y="-880" width="40" height="30" as="geometry" />
        </mxCell>
        <mxCell id="GQbGRJaTcOYWJL32N-Nd-31" style="edgeStyle=orthogonalEdgeStyle;rounded=0;orthogonalLoop=1;jettySize=auto;html=1;entryX=0.5;entryY=0;entryDx=0;entryDy=0;" parent="1" source="GQbGRJaTcOYWJL32N-Nd-18" target="8VQ5XFuC3viOlhqziwZA-3" edge="1">
          <mxGeometry relative="1" as="geometry">
            <Array as="points">
              <mxPoint x="720" y="-850" />
              <mxPoint x="720" y="-580" />
            </Array>
          </mxGeometry>
        </mxCell>
        <mxCell id="GQbGRJaTcOYWJL32N-Nd-18" value="Player.SetCollision()" style="rounded=1;whiteSpace=wrap;html=1;" parent="1" vertex="1">
          <mxGeometry x="545.5" y="-880" width="120" height="60" as="geometry" />
        </mxCell>
        <mxCell id="GQbGRJaTcOYWJL32N-Nd-20" value="Yes" style="text;html=1;align=center;verticalAlign=middle;resizable=0;points=[];autosize=1;strokeColor=none;fillColor=none;" parent="1" vertex="1">
          <mxGeometry x="505.5" y="-882" width="40" height="30" as="geometry" />
        </mxCell>
        <mxCell id="GQbGRJaTcOYWJL32N-Nd-24" value="" style="edgeStyle=orthogonalEdgeStyle;rounded=0;orthogonalLoop=1;jettySize=auto;html=1;" parent="1" source="GQbGRJaTcOYWJL32N-Nd-21" target="GQbGRJaTcOYWJL32N-Nd-23" edge="1">
          <mxGeometry relative="1" as="geometry" />
        </mxCell>
        <mxCell id="GQbGRJaTcOYWJL32N-Nd-28" style="edgeStyle=orthogonalEdgeStyle;rounded=0;orthogonalLoop=1;jettySize=auto;html=1;entryX=0.5;entryY=0;entryDx=0;entryDy=0;" parent="1" source="GQbGRJaTcOYWJL32N-Nd-21" target="8VQ5XFuC3viOlhqziwZA-3" edge="1">
          <mxGeometry relative="1" as="geometry" />
        </mxCell>
        <mxCell id="GQbGRJaTcOYWJL32N-Nd-21" value="Collision with player 1" style="rhombus;whiteSpace=wrap;html=1;" parent="1" vertex="1">
          <mxGeometry x="55.5" y="-730" width="98" height="80" as="geometry" />
        </mxCell>
        <mxCell id="GQbGRJaTcOYWJL32N-Nd-37" style="edgeStyle=orthogonalEdgeStyle;rounded=0;orthogonalLoop=1;jettySize=auto;html=1;entryX=0.5;entryY=0;entryDx=0;entryDy=0;" parent="1" source="GQbGRJaTcOYWJL32N-Nd-23" target="8VQ5XFuC3viOlhqziwZA-3" edge="1">
          <mxGeometry relative="1" as="geometry">
            <Array as="points">
              <mxPoint x="285" y="-580" />
            </Array>
          </mxGeometry>
        </mxCell>
        <mxCell id="GQbGRJaTcOYWJL32N-Nd-23" value="Player.SetCollision()" style="rounded=1;whiteSpace=wrap;html=1;" parent="1" vertex="1">
          <mxGeometry x="224.5" y="-720" width="120" height="60" as="geometry" />
        </mxCell>
        <mxCell id="GQbGRJaTcOYWJL32N-Nd-25" value="Yes" style="text;html=1;align=center;verticalAlign=middle;resizable=0;points=[];autosize=1;strokeColor=none;fillColor=none;" parent="1" vertex="1">
          <mxGeometry x="185.5" y="-720" width="40" height="30" as="geometry" />
        </mxCell>
        <mxCell id="GQbGRJaTcOYWJL32N-Nd-26" value="No" style="text;html=1;align=center;verticalAlign=middle;resizable=0;points=[];autosize=1;strokeColor=none;fillColor=none;" parent="1" vertex="1">
          <mxGeometry x="105.5" y="-822" width="40" height="30" as="geometry" />
        </mxCell>
        <mxCell id="GQbGRJaTcOYWJL32N-Nd-34" value="No" style="text;html=1;align=center;verticalAlign=middle;resizable=0;points=[];autosize=1;strokeColor=none;fillColor=none;" parent="1" vertex="1">
          <mxGeometry x="420" y="-810" width="40" height="30" as="geometry" />
        </mxCell>
        <mxCell id="GQbGRJaTcOYWJL32N-Nd-35" value="No" style="text;html=1;align=center;verticalAlign=middle;resizable=0;points=[];autosize=1;strokeColor=none;fillColor=none;" parent="1" vertex="1">
          <mxGeometry x="260" y="-812" width="40" height="30" as="geometry" />
        </mxCell>
        <mxCell id="GQbGRJaTcOYWJL32N-Nd-36" value="No" style="text;html=1;align=center;verticalAlign=middle;resizable=0;points=[];autosize=1;strokeColor=none;fillColor=none;" parent="1" vertex="1">
          <mxGeometry x="100" y="-662" width="40" height="30" as="geometry" />
        </mxCell>
        <mxCell id="NFFfUiEcCYoVSYxX8CfE-4" style="edgeStyle=orthogonalEdgeStyle;rounded=0;orthogonalLoop=1;jettySize=auto;html=1;entryX=0.5;entryY=0;entryDx=0;entryDy=0;" parent="1" source="NFFfUiEcCYoVSYxX8CfE-1" target="NFFfUiEcCYoVSYxX8CfE-2" edge="1">
          <mxGeometry relative="1" as="geometry" />
        </mxCell>
        <object label="Move()" UserInput="changes position based on arrow key pressed" id="NFFfUiEcCYoVSYxX8CfE-1">
          <mxCell style="whiteSpace=wrap;html=1;rounded=1;" parent="1" vertex="1">
            <mxGeometry x="45.5" y="-1310" width="120" height="60" as="geometry" />
          </mxCell>
        </object>
        <mxCell id="NFFfUiEcCYoVSYxX8CfE-5" style="edgeStyle=orthogonalEdgeStyle;rounded=0;orthogonalLoop=1;jettySize=auto;html=1;entryX=0.5;entryY=0;entryDx=0;entryDy=0;" parent="1" source="NFFfUiEcCYoVSYxX8CfE-2" target="fxGL98BY1sFY6GuzSAUi-5" edge="1">
          <mxGeometry relative="1" as="geometry" />
        </mxCell>
        <object label="Shoot()" UserInput="adds a bullet to the respective array depending on power up and if key is pressed" id="NFFfUiEcCYoVSYxX8CfE-2">
          <mxCell style="whiteSpace=wrap;html=1;rounded=1;" parent="1" vertex="1">
            <mxGeometry x="45.5" y="-1170" width="120" height="60" as="geometry" />
          </mxCell>
        </object>
        <mxCell id="NFFfUiEcCYoVSYxX8CfE-8" value="No" style="text;html=1;align=center;verticalAlign=middle;resizable=0;points=[];autosize=1;strokeColor=none;fillColor=none;" parent="1" vertex="1">
          <mxGeometry x="530" y="148" width="40" height="30" as="geometry" />
        </mxCell>
      </root>
    </mxGraphModel>
  </diagram>
  <diagram id="EPs8V_hxKz09cWETlHJX" name="Enemy">
    <mxGraphModel dx="-266" dy="1924" grid="1" gridSize="10" guides="1" tooltips="1" connect="1" arrows="1" fold="1" page="1" pageScale="1" pageWidth="850" pageHeight="1100" math="0" shadow="0">
      <root>
        <mxCell id="0" />
        <mxCell id="1" parent="0" />
        <mxCell id="6YP2K6bdF3C9MFCDwhIw-2" style="edgeStyle=orthogonalEdgeStyle;rounded=0;orthogonalLoop=1;jettySize=auto;html=1;entryX=0;entryY=0.5;entryDx=0;entryDy=0;" parent="1" source="6YP2K6bdF3C9MFCDwhIw-3" target="6YP2K6bdF3C9MFCDwhIw-7" edge="1">
          <mxGeometry relative="1" as="geometry">
            <mxPoint x="2027.54" y="-522" as="targetPoint" />
          </mxGeometry>
        </mxCell>
        <mxCell id="6YP2K6bdF3C9MFCDwhIw-3" value="Collision with&amp;nbsp;&lt;div&gt;boundary, brick, steel, water,&lt;br&gt;&amp;nbsp;enemy or player&lt;/div&gt;" style="rhombus;whiteSpace=wrap;html=1;" parent="1" vertex="1">
          <mxGeometry x="1747.54" y="-570" width="210" height="95" as="geometry" />
        </mxCell>
        <mxCell id="6YP2K6bdF3C9MFCDwhIw-4" value="Yes" style="text;html=1;align=center;verticalAlign=middle;resizable=0;points=[];autosize=1;strokeColor=none;fillColor=none;" parent="1" vertex="1">
          <mxGeometry x="1997.54" y="-550" width="40" height="30" as="geometry" />
        </mxCell>
        <mxCell id="6YP2K6bdF3C9MFCDwhIw-5" style="edgeStyle=orthogonalEdgeStyle;rounded=0;orthogonalLoop=1;jettySize=auto;html=1;" parent="1" edge="1">
          <mxGeometry relative="1" as="geometry">
            <mxPoint x="1852.54" y="-400" as="targetPoint" />
            <mxPoint x="1852.54" y="-475" as="sourcePoint" />
          </mxGeometry>
        </mxCell>
        <mxCell id="0vq1LKut0pSiiR7zHNsH-6" style="edgeStyle=orthogonalEdgeStyle;rounded=0;orthogonalLoop=1;jettySize=auto;html=1;entryX=0.5;entryY=0;entryDx=0;entryDy=0;" parent="1" source="6YP2K6bdF3C9MFCDwhIw-7" target="6YP2K6bdF3C9MFCDwhIw-10" edge="1">
          <mxGeometry relative="1" as="geometry">
            <Array as="points">
              <mxPoint x="2270" y="-522" />
              <mxPoint x="2270" y="-400" />
            </Array>
          </mxGeometry>
        </mxCell>
        <mxCell id="6YP2K6bdF3C9MFCDwhIw-7" value="enemy.SetCollision()" style="rounded=1;whiteSpace=wrap;html=1;" parent="1" vertex="1">
          <mxGeometry x="2037.54" y="-552.5" width="210" height="60" as="geometry" />
        </mxCell>
        <mxCell id="6YP2K6bdF3C9MFCDwhIw-8" style="edgeStyle=orthogonalEdgeStyle;rounded=0;orthogonalLoop=1;jettySize=auto;html=1;" parent="1" source="6YP2K6bdF3C9MFCDwhIw-10" edge="1">
          <mxGeometry relative="1" as="geometry">
            <mxPoint x="1977.54" y="-352.5" as="targetPoint" />
          </mxGeometry>
        </mxCell>
        <mxCell id="6YP2K6bdF3C9MFCDwhIw-9" style="edgeStyle=orthogonalEdgeStyle;rounded=0;orthogonalLoop=1;jettySize=auto;html=1;" parent="1" source="6YP2K6bdF3C9MFCDwhIw-10" edge="1">
          <mxGeometry relative="1" as="geometry">
            <mxPoint x="1852.54" y="-230" as="targetPoint" />
          </mxGeometry>
        </mxCell>
        <mxCell id="6YP2K6bdF3C9MFCDwhIw-10" value="Collision with&lt;br&gt;ice" style="rhombus;whiteSpace=wrap;html=1;" parent="1" vertex="1">
          <mxGeometry x="1805.04" y="-400" width="95" height="95" as="geometry" />
        </mxCell>
        <mxCell id="6YP2K6bdF3C9MFCDwhIw-11" value="Yes" style="text;html=1;align=center;verticalAlign=middle;resizable=0;points=[];autosize=1;strokeColor=none;fillColor=none;" parent="1" vertex="1">
          <mxGeometry x="1937.54" y="-380" width="40" height="30" as="geometry" />
        </mxCell>
        <mxCell id="0vq1LKut0pSiiR7zHNsH-47" style="edgeStyle=orthogonalEdgeStyle;rounded=0;orthogonalLoop=1;jettySize=auto;html=1;entryX=0.5;entryY=0;entryDx=0;entryDy=0;" parent="1" source="6YP2K6bdF3C9MFCDwhIw-13" target="0vq1LKut0pSiiR7zHNsH-14" edge="1">
          <mxGeometry relative="1" as="geometry">
            <Array as="points">
              <mxPoint x="2082" y="-240" />
              <mxPoint x="1852" y="-240" />
            </Array>
          </mxGeometry>
        </mxCell>
        <mxCell id="6YP2K6bdF3C9MFCDwhIw-13" value="enemy.CollsionWithIceBlock()" style="rounded=1;whiteSpace=wrap;html=1;" parent="1" vertex="1">
          <mxGeometry x="1977.54" y="-382.5" width="210" height="60" as="geometry" />
        </mxCell>
        <mxCell id="6YP2K6bdF3C9MFCDwhIw-14" style="edgeStyle=orthogonalEdgeStyle;rounded=0;orthogonalLoop=1;jettySize=auto;html=1;" parent="1" source="6YP2K6bdF3C9MFCDwhIw-16" edge="1">
          <mxGeometry relative="1" as="geometry">
            <mxPoint x="1977.54" y="197.5" as="targetPoint" />
          </mxGeometry>
        </mxCell>
        <mxCell id="0vq1LKut0pSiiR7zHNsH-8" style="edgeStyle=orthogonalEdgeStyle;rounded=0;orthogonalLoop=1;jettySize=auto;html=1;entryX=0.5;entryY=0;entryDx=0;entryDy=0;" parent="1" source="6YP2K6bdF3C9MFCDwhIw-16" edge="1">
          <mxGeometry relative="1" as="geometry">
            <mxPoint x="1852.54" y="310" as="targetPoint" />
          </mxGeometry>
        </mxCell>
        <mxCell id="6YP2K6bdF3C9MFCDwhIw-16" value="Collision with&lt;br&gt;player bullet" style="rhombus;whiteSpace=wrap;html=1;" parent="1" vertex="1">
          <mxGeometry x="1805.04" y="150" width="95" height="95" as="geometry" />
        </mxCell>
        <mxCell id="0vq1LKut0pSiiR7zHNsH-13" style="edgeStyle=orthogonalEdgeStyle;rounded=0;orthogonalLoop=1;jettySize=auto;html=1;entryX=1;entryY=0.5;entryDx=0;entryDy=0;" parent="1" source="6YP2K6bdF3C9MFCDwhIw-18" target="ehjwyrURAWVNRO3GPHpe-2" edge="1">
          <mxGeometry relative="1" as="geometry">
            <Array as="points">
              <mxPoint x="2260" y="198" />
              <mxPoint x="2260" y="350" />
            </Array>
          </mxGeometry>
        </mxCell>
        <mxCell id="6YP2K6bdF3C9MFCDwhIw-18" value="enemy.Destroy()" style="rounded=1;whiteSpace=wrap;html=1;" parent="1" vertex="1">
          <mxGeometry x="1977.54" y="167.5" width="210" height="60" as="geometry" />
        </mxCell>
        <mxCell id="BbY-V6FXd497V43DBe9c-8" value="" style="edgeStyle=orthogonalEdgeStyle;rounded=0;orthogonalLoop=1;jettySize=auto;html=1;" parent="1" edge="1">
          <mxGeometry relative="1" as="geometry">
            <mxPoint x="1858.5" y="-50.00000000000023" as="sourcePoint" />
          </mxGeometry>
        </mxCell>
        <mxCell id="7Gc4M7ZfZ1M2ZPHjo6kM-17" value="" style="edgeStyle=orthogonalEdgeStyle;rounded=0;orthogonalLoop=1;jettySize=auto;html=1;" edge="1" parent="1" source="ehjwyrURAWVNRO3GPHpe-1" target="7Gc4M7ZfZ1M2ZPHjo6kM-16">
          <mxGeometry relative="1" as="geometry" />
        </mxCell>
        <mxCell id="ehjwyrURAWVNRO3GPHpe-1" value="Start&lt;span style=&quot;color: rgba(0, 0, 0, 0); font-family: monospace; font-size: 0px; text-align: start; text-wrap: nowrap;&quot;&gt;%3CmxGraphModel%3E%3Croot%3E%3CmxCell%20id%3D%220%22%2F%3E%3CmxCell%20id%3D%221%22%20parent%3D%220%22%2F%3E%3CmxCell%20id%3D%222%22%20value%3D%22Base.Update()%22%20style%3D%22rounded%3D1%3BwhiteSpace%3Dwrap%3Bhtml%3D1%3B%22%20vertex%3D%221%22%20parent%3D%221%22%3E%3CmxGeometry%20x%3D%22990%22%20y%3D%22-732%22%20width%3D%22120%22%20height%3D%2260%22%20as%3D%22geometry%22%2F%3E%3C%2FmxCell%3E%3C%2Froot%3E%3C%2FmxGraphModel%3E&lt;/span&gt;" style="ellipse;whiteSpace=wrap;html=1;aspect=fixed;" parent="1" vertex="1">
          <mxGeometry x="1812.54" y="-1000" width="80" height="80" as="geometry" />
        </mxCell>
        <mxCell id="ehjwyrURAWVNRO3GPHpe-2" value="Continue" style="ellipse;whiteSpace=wrap;html=1;aspect=fixed;" parent="1" vertex="1">
          <mxGeometry x="1812.54" y="310" width="80" height="80" as="geometry" />
        </mxCell>
        <mxCell id="0vq1LKut0pSiiR7zHNsH-1" value="" style="edgeStyle=orthogonalEdgeStyle;rounded=0;orthogonalLoop=1;jettySize=auto;html=1;" parent="1" source="0vq1LKut0pSiiR7zHNsH-2" target="0vq1LKut0pSiiR7zHNsH-3" edge="1">
          <mxGeometry relative="1" as="geometry" />
        </mxCell>
        <object label="Move()" Direction="move based on direction" id="0vq1LKut0pSiiR7zHNsH-2">
          <mxCell style="whiteSpace=wrap;html=1;rounded=1;" parent="1" vertex="1">
            <mxGeometry x="1792.54" y="-760" width="120" height="60" as="geometry" />
          </mxCell>
        </object>
        <mxCell id="0vq1LKut0pSiiR7zHNsH-5" style="edgeStyle=orthogonalEdgeStyle;rounded=0;orthogonalLoop=1;jettySize=auto;html=1;entryX=0.5;entryY=0;entryDx=0;entryDy=0;" parent="1" source="0vq1LKut0pSiiR7zHNsH-3" target="6YP2K6bdF3C9MFCDwhIw-3" edge="1">
          <mxGeometry relative="1" as="geometry" />
        </mxCell>
        <object label="Shoot()" FireRateTimer="if fire rate exceeded shoot bullet in current direction" id="0vq1LKut0pSiiR7zHNsH-3">
          <mxCell style="whiteSpace=wrap;html=1;rounded=1;" parent="1" vertex="1">
            <mxGeometry x="1792.54" y="-670" width="120" height="60" as="geometry" />
          </mxCell>
        </object>
        <mxCell id="0vq1LKut0pSiiR7zHNsH-17" value="" style="edgeStyle=orthogonalEdgeStyle;rounded=0;orthogonalLoop=1;jettySize=auto;html=1;" parent="1" source="0vq1LKut0pSiiR7zHNsH-14" target="0vq1LKut0pSiiR7zHNsH-16" edge="1">
          <mxGeometry relative="1" as="geometry" />
        </mxCell>
        <mxCell id="0vq1LKut0pSiiR7zHNsH-37" style="edgeStyle=orthogonalEdgeStyle;rounded=0;orthogonalLoop=1;jettySize=auto;html=1;" parent="1" source="0vq1LKut0pSiiR7zHNsH-14" target="6YP2K6bdF3C9MFCDwhIw-16" edge="1">
          <mxGeometry relative="1" as="geometry" />
        </mxCell>
        <mxCell id="0vq1LKut0pSiiR7zHNsH-14" value="player.GetPowerUp()" style="rounded=1;whiteSpace=wrap;html=1;" parent="1" vertex="1">
          <mxGeometry x="1747.54" y="-230" width="210" height="60" as="geometry" />
        </mxCell>
        <mxCell id="0vq1LKut0pSiiR7zHNsH-21" style="edgeStyle=orthogonalEdgeStyle;rounded=0;orthogonalLoop=1;jettySize=auto;html=1;entryX=0;entryY=0.5;entryDx=0;entryDy=0;" parent="1" source="0vq1LKut0pSiiR7zHNsH-16" target="0vq1LKut0pSiiR7zHNsH-20" edge="1">
          <mxGeometry relative="1" as="geometry" />
        </mxCell>
        <mxCell id="0vq1LKut0pSiiR7zHNsH-40" style="edgeStyle=orthogonalEdgeStyle;rounded=0;orthogonalLoop=1;jettySize=auto;html=1;entryX=0.5;entryY=0;entryDx=0;entryDy=0;" parent="1" source="0vq1LKut0pSiiR7zHNsH-16" edge="1">
          <mxGeometry relative="1" as="geometry">
            <mxPoint x="2125" y="-90" as="targetPoint" />
          </mxGeometry>
        </mxCell>
        <mxCell id="0vq1LKut0pSiiR7zHNsH-16" value="Power up &lt;br&gt;=&lt;br&gt;freeze" style="rhombus;whiteSpace=wrap;html=1;rounded=1;" parent="1" vertex="1">
          <mxGeometry x="2095.08" y="-240" width="94.92" height="80" as="geometry" />
        </mxCell>
        <mxCell id="7Gc4M7ZfZ1M2ZPHjo6kM-4" style="edgeStyle=orthogonalEdgeStyle;rounded=0;orthogonalLoop=1;jettySize=auto;html=1;" edge="1" parent="1" source="0vq1LKut0pSiiR7zHNsH-20" target="6YP2K6bdF3C9MFCDwhIw-16">
          <mxGeometry relative="1" as="geometry">
            <Array as="points">
              <mxPoint x="2308" y="60" />
            </Array>
          </mxGeometry>
        </mxCell>
        <mxCell id="7Gc4M7ZfZ1M2ZPHjo6kM-14" style="edgeStyle=orthogonalEdgeStyle;rounded=0;orthogonalLoop=1;jettySize=auto;html=1;entryX=0.5;entryY=0;entryDx=0;entryDy=0;" edge="1" parent="1" source="0vq1LKut0pSiiR7zHNsH-20" target="6YP2K6bdF3C9MFCDwhIw-18">
          <mxGeometry relative="1" as="geometry">
            <Array as="points">
              <mxPoint x="2410" y="-200" />
              <mxPoint x="2410" y="140" />
              <mxPoint x="2083" y="140" />
            </Array>
          </mxGeometry>
        </mxCell>
        <mxCell id="0vq1LKut0pSiiR7zHNsH-20" value="Power up &lt;br&gt;=&lt;br&gt;destroy" style="rhombus;whiteSpace=wrap;html=1;rounded=1;" parent="1" vertex="1">
          <mxGeometry x="2260" y="-240" width="94.92" height="80" as="geometry" />
        </mxCell>
        <mxCell id="0vq1LKut0pSiiR7zHNsH-22" value="No" style="text;html=1;align=center;verticalAlign=middle;resizable=0;points=[];autosize=1;strokeColor=none;fillColor=none;" parent="1" vertex="1">
          <mxGeometry x="2180" y="-230" width="40" height="30" as="geometry" />
        </mxCell>
        <mxCell id="0vq1LKut0pSiiR7zHNsH-24" value="Yes" style="text;html=1;align=center;verticalAlign=middle;resizable=0;points=[];autosize=1;strokeColor=none;fillColor=none;" parent="1" vertex="1">
          <mxGeometry x="2095.08" y="-150" width="40" height="30" as="geometry" />
        </mxCell>
        <mxCell id="0vq1LKut0pSiiR7zHNsH-46" style="edgeStyle=orthogonalEdgeStyle;rounded=0;orthogonalLoop=1;jettySize=auto;html=1;" parent="1" target="6YP2K6bdF3C9MFCDwhIw-16" edge="1">
          <mxGeometry relative="1" as="geometry">
            <Array as="points">
              <mxPoint x="2125" y="60" />
            </Array>
            <mxPoint x="2125" y="-30" as="sourcePoint" />
          </mxGeometry>
        </mxCell>
        <mxCell id="0vq1LKut0pSiiR7zHNsH-49" value="Yes" style="text;html=1;align=center;verticalAlign=middle;resizable=0;points=[];autosize=1;strokeColor=none;fillColor=none;" parent="1" vertex="1">
          <mxGeometry x="1930" y="168" width="40" height="30" as="geometry" />
        </mxCell>
        <mxCell id="7Gc4M7ZfZ1M2ZPHjo6kM-1" value="enemy.Freeze()" style="whiteSpace=wrap;html=1;rounded=1;" vertex="1" parent="1">
          <mxGeometry x="2065" y="-90" width="120" height="60" as="geometry" />
        </mxCell>
        <mxCell id="7Gc4M7ZfZ1M2ZPHjo6kM-5" value="No" style="text;html=1;align=center;verticalAlign=middle;resizable=0;points=[];autosize=1;strokeColor=none;fillColor=none;" vertex="1" parent="1">
          <mxGeometry x="2310" y="-162" width="40" height="30" as="geometry" />
        </mxCell>
        <mxCell id="7Gc4M7ZfZ1M2ZPHjo6kM-15" value="Yes" style="text;html=1;align=center;verticalAlign=middle;resizable=0;points=[];autosize=1;strokeColor=none;fillColor=none;" vertex="1" parent="1">
          <mxGeometry x="2370" y="-230" width="40" height="30" as="geometry" />
        </mxCell>
        <mxCell id="7Gc4M7ZfZ1M2ZPHjo6kM-18" style="edgeStyle=orthogonalEdgeStyle;rounded=0;orthogonalLoop=1;jettySize=auto;html=1;" edge="1" parent="1" source="7Gc4M7ZfZ1M2ZPHjo6kM-16" target="0vq1LKut0pSiiR7zHNsH-2">
          <mxGeometry relative="1" as="geometry" />
        </mxCell>
        <mxCell id="7Gc4M7ZfZ1M2ZPHjo6kM-21" value="" style="edgeStyle=orthogonalEdgeStyle;rounded=0;orthogonalLoop=1;jettySize=auto;html=1;" edge="1" parent="1" source="7Gc4M7ZfZ1M2ZPHjo6kM-16" target="7Gc4M7ZfZ1M2ZPHjo6kM-20">
          <mxGeometry relative="1" as="geometry" />
        </mxCell>
        <mxCell id="7Gc4M7ZfZ1M2ZPHjo6kM-16" value="Destroy" style="rhombus;whiteSpace=wrap;html=1;" vertex="1" parent="1">
          <mxGeometry x="1812.54" y="-890" width="80" height="80" as="geometry" />
        </mxCell>
        <mxCell id="7Gc4M7ZfZ1M2ZPHjo6kM-20" value="Continue" style="ellipse;whiteSpace=wrap;html=1;" vertex="1" parent="1">
          <mxGeometry x="1972.54" y="-890" width="80" height="80" as="geometry" />
        </mxCell>
        <mxCell id="7Gc4M7ZfZ1M2ZPHjo6kM-22" value="Yes" style="text;html=1;align=center;verticalAlign=middle;resizable=0;points=[];autosize=1;strokeColor=none;fillColor=none;" vertex="1" parent="1">
          <mxGeometry x="1932.54" y="-882" width="40" height="30" as="geometry" />
        </mxCell>
        <mxCell id="7Gc4M7ZfZ1M2ZPHjo6kM-23" value="No" style="text;html=1;align=center;verticalAlign=middle;resizable=0;points=[];autosize=1;strokeColor=none;fillColor=none;" vertex="1" parent="1">
          <mxGeometry x="1852.54" y="-820" width="40" height="30" as="geometry" />
        </mxCell>
      </root>
    </mxGraphModel>
  </diagram>
  <diagram id="_QlmrNRKgv7RQ7gVtxN9" name="Bullet">
    <mxGraphModel dx="-861" dy="1585" grid="1" gridSize="10" guides="1" tooltips="1" connect="1" arrows="1" fold="1" page="1" pageScale="1" pageWidth="850" pageHeight="1100" math="0" shadow="0">
      <root>
        <mxCell id="0" />
        <mxCell id="1" parent="0" />
        <mxCell id="yzQMKDtphbmnsaQ2SDb0-2" value="" style="edgeStyle=orthogonalEdgeStyle;rounded=0;orthogonalLoop=1;jettySize=auto;html=1;" parent="1" target="yzQMKDtphbmnsaQ2SDb0-1" edge="1">
          <mxGeometry relative="1" as="geometry">
            <mxPoint x="2607.5" y="-1020.0000000000001" as="sourcePoint" />
          </mxGeometry>
        </mxCell>
        <mxCell id="yzQMKDtphbmnsaQ2SDb0-5" value="" style="edgeStyle=orthogonalEdgeStyle;rounded=0;orthogonalLoop=1;jettySize=auto;html=1;" parent="1" source="yzQMKDtphbmnsaQ2SDb0-1" target="yzQMKDtphbmnsaQ2SDb0-4" edge="1">
          <mxGeometry relative="1" as="geometry" />
        </mxCell>
        <mxCell id="yzQMKDtphbmnsaQ2SDb0-17" value="" style="edgeStyle=orthogonalEdgeStyle;rounded=0;orthogonalLoop=1;jettySize=auto;html=1;" parent="1" source="yzQMKDtphbmnsaQ2SDb0-1" target="yzQMKDtphbmnsaQ2SDb0-16" edge="1">
          <mxGeometry relative="1" as="geometry" />
        </mxCell>
        <mxCell id="yzQMKDtphbmnsaQ2SDb0-1" value="Player bullet" style="rhombus;whiteSpace=wrap;html=1;rounded=1;" parent="1" vertex="1">
          <mxGeometry x="2567.5" y="-950" width="80" height="80" as="geometry" />
        </mxCell>
        <mxCell id="yzQMKDtphbmnsaQ2SDb0-11" style="edgeStyle=orthogonalEdgeStyle;rounded=0;orthogonalLoop=1;jettySize=auto;html=1;entryX=0;entryY=0.5;entryDx=0;entryDy=0;" parent="1" source="yzQMKDtphbmnsaQ2SDb0-4" target="yzQMKDtphbmnsaQ2SDb0-7" edge="1">
          <mxGeometry relative="1" as="geometry" />
        </mxCell>
        <mxCell id="Uj63u55Qgy3ets4iOGi1-4" style="edgeStyle=orthogonalEdgeStyle;rounded=0;orthogonalLoop=1;jettySize=auto;html=1;entryX=0.5;entryY=0;entryDx=0;entryDy=0;" parent="1" source="yzQMKDtphbmnsaQ2SDb0-4" target="Uj63u55Qgy3ets4iOGi1-3" edge="1">
          <mxGeometry relative="1" as="geometry" />
        </mxCell>
        <mxCell id="yzQMKDtphbmnsaQ2SDb0-4" value="Normal" style="rhombus;whiteSpace=wrap;html=1;rounded=1;" parent="1" vertex="1">
          <mxGeometry x="2727.5" y="-950" width="80" height="80" as="geometry" />
        </mxCell>
        <mxCell id="yzQMKDtphbmnsaQ2SDb0-6" value="Yes" style="text;html=1;align=center;verticalAlign=middle;resizable=0;points=[];autosize=1;strokeColor=none;fillColor=none;" parent="1" vertex="1">
          <mxGeometry x="2700" y="-942" width="40" height="30" as="geometry" />
        </mxCell>
        <mxCell id="yzQMKDtphbmnsaQ2SDb0-14" style="edgeStyle=orthogonalEdgeStyle;rounded=0;orthogonalLoop=1;jettySize=auto;html=1;" parent="1" source="yzQMKDtphbmnsaQ2SDb0-7" target="yzQMKDtphbmnsaQ2SDb0-13" edge="1">
          <mxGeometry relative="1" as="geometry" />
        </mxCell>
        <mxCell id="yzQMKDtphbmnsaQ2SDb0-7" value="Collision with&amp;nbsp;&lt;div&gt;boundary, brick, steel, enemy, &lt;br&gt;base, player and &lt;br&gt;enemy bullet&lt;/div&gt;" style="rhombus;whiteSpace=wrap;html=1;" parent="1" vertex="1">
          <mxGeometry x="2870" y="-957.5" width="210" height="95" as="geometry" />
        </mxCell>
        <mxCell id="yzQMKDtphbmnsaQ2SDb0-12" value="Yes" style="text;html=1;align=center;verticalAlign=middle;resizable=0;points=[];autosize=1;strokeColor=none;fillColor=none;" parent="1" vertex="1">
          <mxGeometry x="2840" y="-942" width="40" height="30" as="geometry" />
        </mxCell>
        <mxCell id="Uj63u55Qgy3ets4iOGi1-47" style="edgeStyle=orthogonalEdgeStyle;rounded=0;orthogonalLoop=1;jettySize=auto;html=1;entryX=1;entryY=0.5;entryDx=0;entryDy=0;" parent="1" source="yzQMKDtphbmnsaQ2SDb0-13" target="Uj63u55Qgy3ets4iOGi1-45" edge="1">
          <mxGeometry relative="1" as="geometry">
            <Array as="points">
              <mxPoint x="3380" y="-910" />
              <mxPoint x="3380" y="-360" />
            </Array>
          </mxGeometry>
        </mxCell>
        <mxCell id="yzQMKDtphbmnsaQ2SDb0-13" value="Bullet.Destroy()" style="rounded=1;whiteSpace=wrap;html=1;" parent="1" vertex="1">
          <mxGeometry x="3150" y="-940" width="210" height="60" as="geometry" />
        </mxCell>
        <mxCell id="yzQMKDtphbmnsaQ2SDb0-15" value="Yes" style="text;html=1;align=center;verticalAlign=middle;resizable=0;points=[];autosize=1;strokeColor=none;fillColor=none;" parent="1" vertex="1">
          <mxGeometry x="3110" y="-940" width="40" height="30" as="geometry" />
        </mxCell>
        <mxCell id="yzQMKDtphbmnsaQ2SDb0-16" value="Normal" style="rhombus;whiteSpace=wrap;html=1;rounded=1;" parent="1" vertex="1">
          <mxGeometry x="2566.25" y="-282.5" width="80" height="80" as="geometry" />
        </mxCell>
        <mxCell id="SOsH9oSIl_i27B4pggVm-1" value="No" style="text;html=1;align=center;verticalAlign=middle;resizable=0;points=[];autosize=1;strokeColor=none;fillColor=none;" parent="1" vertex="1">
          <mxGeometry x="2600" y="-872" width="40" height="30" as="geometry" />
        </mxCell>
        <mxCell id="Uj63u55Qgy3ets4iOGi1-10" value="" style="edgeStyle=orthogonalEdgeStyle;rounded=0;orthogonalLoop=1;jettySize=auto;html=1;" parent="1" source="Uj63u55Qgy3ets4iOGi1-3" target="Uj63u55Qgy3ets4iOGi1-9" edge="1">
          <mxGeometry relative="1" as="geometry" />
        </mxCell>
        <mxCell id="Uj63u55Qgy3ets4iOGi1-13" style="edgeStyle=orthogonalEdgeStyle;rounded=0;orthogonalLoop=1;jettySize=auto;html=1;entryX=0.5;entryY=0;entryDx=0;entryDy=0;" parent="1" source="Uj63u55Qgy3ets4iOGi1-3" target="Uj63u55Qgy3ets4iOGi1-12" edge="1">
          <mxGeometry relative="1" as="geometry" />
        </mxCell>
        <mxCell id="Uj63u55Qgy3ets4iOGi1-3" value="Collision with&amp;nbsp;&lt;div&gt;boundary, steel,&lt;br&gt;base, player and &lt;br&gt;enemy bullet&lt;/div&gt;" style="rhombus;whiteSpace=wrap;html=1;" parent="1" vertex="1">
          <mxGeometry x="2662.5" y="-785" width="210" height="95" as="geometry" />
        </mxCell>
        <mxCell id="Uj63u55Qgy3ets4iOGi1-6" value="No" style="text;html=1;align=center;verticalAlign=middle;resizable=0;points=[];autosize=1;strokeColor=none;fillColor=none;" parent="1" vertex="1">
          <mxGeometry x="2760" y="-872" width="40" height="30" as="geometry" />
        </mxCell>
        <mxCell id="Uj63u55Qgy3ets4iOGi1-42" style="edgeStyle=orthogonalEdgeStyle;rounded=0;orthogonalLoop=1;jettySize=auto;html=1;entryX=0;entryY=0.5;entryDx=0;entryDy=0;" parent="1" source="Uj63u55Qgy3ets4iOGi1-9" target="Uj63u55Qgy3ets4iOGi1-41" edge="1">
          <mxGeometry relative="1" as="geometry" />
        </mxCell>
        <mxCell id="Uj63u55Qgy3ets4iOGi1-9" value="Bullet.Destroy()" style="rounded=1;whiteSpace=wrap;html=1;" parent="1" vertex="1">
          <mxGeometry x="2950" y="-767.5" width="120" height="60" as="geometry" />
        </mxCell>
        <mxCell id="Uj63u55Qgy3ets4iOGi1-11" value="Yes" style="text;html=1;align=center;verticalAlign=middle;resizable=0;points=[];autosize=1;strokeColor=none;fillColor=none;" parent="1" vertex="1">
          <mxGeometry x="2910" y="-767.5" width="40" height="30" as="geometry" />
        </mxCell>
        <mxCell id="Uj63u55Qgy3ets4iOGi1-18" value="" style="edgeStyle=orthogonalEdgeStyle;rounded=0;orthogonalLoop=1;jettySize=auto;html=1;" parent="1" source="Uj63u55Qgy3ets4iOGi1-12" target="Uj63u55Qgy3ets4iOGi1-17" edge="1">
          <mxGeometry relative="1" as="geometry" />
        </mxCell>
        <mxCell id="Uj63u55Qgy3ets4iOGi1-38" style="edgeStyle=orthogonalEdgeStyle;rounded=0;orthogonalLoop=1;jettySize=auto;html=1;entryX=0;entryY=0.5;entryDx=0;entryDy=0;" parent="1" source="Uj63u55Qgy3ets4iOGi1-12" target="Uj63u55Qgy3ets4iOGi1-31" edge="1">
          <mxGeometry relative="1" as="geometry">
            <Array as="points">
              <mxPoint x="2768" y="-490" />
            </Array>
          </mxGeometry>
        </mxCell>
        <mxCell id="Uj63u55Qgy3ets4iOGi1-12" value="Collision with&amp;nbsp;&lt;div&gt;brick and enemy&lt;/div&gt;" style="rhombus;whiteSpace=wrap;html=1;" parent="1" vertex="1">
          <mxGeometry x="2662.5" y="-645" width="210" height="95" as="geometry" />
        </mxCell>
        <mxCell id="Uj63u55Qgy3ets4iOGi1-14" value="No" style="text;html=1;align=center;verticalAlign=middle;resizable=0;points=[];autosize=1;strokeColor=none;fillColor=none;" parent="1" vertex="1">
          <mxGeometry x="2760" y="-690" width="40" height="30" as="geometry" />
        </mxCell>
        <mxCell id="Uj63u55Qgy3ets4iOGi1-43" style="edgeStyle=orthogonalEdgeStyle;rounded=0;orthogonalLoop=1;jettySize=auto;html=1;entryX=0;entryY=0.5;entryDx=0;entryDy=0;" parent="1" source="Uj63u55Qgy3ets4iOGi1-17" target="Uj63u55Qgy3ets4iOGi1-41" edge="1">
          <mxGeometry relative="1" as="geometry" />
        </mxCell>
        <mxCell id="Uj63u55Qgy3ets4iOGi1-17" value="Bullet.Hit()" style="rounded=1;whiteSpace=wrap;html=1;" parent="1" vertex="1">
          <mxGeometry x="2950" y="-627.5" width="120" height="60" as="geometry" />
        </mxCell>
        <mxCell id="Uj63u55Qgy3ets4iOGi1-19" value="Yes" style="text;html=1;align=center;verticalAlign=middle;resizable=0;points=[];autosize=1;strokeColor=none;fillColor=none;" parent="1" vertex="1">
          <mxGeometry x="2910" y="-627.5" width="40" height="30" as="geometry" />
        </mxCell>
        <mxCell id="Uj63u55Qgy3ets4iOGi1-30" value="Start" style="ellipse;whiteSpace=wrap;html=1;aspect=fixed;" parent="1" vertex="1">
          <mxGeometry x="2567.5" y="-1100" width="80" height="80" as="geometry" />
        </mxCell>
        <mxCell id="Uj63u55Qgy3ets4iOGi1-46" style="edgeStyle=orthogonalEdgeStyle;rounded=0;orthogonalLoop=1;jettySize=auto;html=1;entryX=0.5;entryY=0;entryDx=0;entryDy=0;" parent="1" source="Uj63u55Qgy3ets4iOGi1-31" target="Uj63u55Qgy3ets4iOGi1-45" edge="1">
          <mxGeometry relative="1" as="geometry" />
        </mxCell>
        <mxCell id="Uj63u55Qgy3ets4iOGi1-31" value="Bullet.Move()" style="rounded=1;whiteSpace=wrap;html=1;" parent="1" vertex="1">
          <mxGeometry x="3220" y="-520" width="120" height="60" as="geometry" />
        </mxCell>
        <mxCell id="Uj63u55Qgy3ets4iOGi1-32" style="edgeStyle=orthogonalEdgeStyle;rounded=0;orthogonalLoop=1;jettySize=auto;html=1;entryX=0.5;entryY=0;entryDx=0;entryDy=0;" parent="1" source="yzQMKDtphbmnsaQ2SDb0-7" target="Uj63u55Qgy3ets4iOGi1-31" edge="1">
          <mxGeometry relative="1" as="geometry">
            <Array as="points">
              <mxPoint x="2975" y="-793" />
              <mxPoint x="3280" y="-793" />
            </Array>
          </mxGeometry>
        </mxCell>
        <mxCell id="Uj63u55Qgy3ets4iOGi1-33" value="No" style="text;html=1;align=center;verticalAlign=middle;resizable=0;points=[];autosize=1;strokeColor=none;fillColor=none;" parent="1" vertex="1">
          <mxGeometry x="2970" y="-872" width="40" height="30" as="geometry" />
        </mxCell>
        <mxCell id="Uj63u55Qgy3ets4iOGi1-39" value="No" style="text;html=1;align=center;verticalAlign=middle;resizable=0;points=[];autosize=1;strokeColor=none;fillColor=none;" parent="1" vertex="1">
          <mxGeometry x="2760" y="-550" width="40" height="30" as="geometry" />
        </mxCell>
        <mxCell id="Uj63u55Qgy3ets4iOGi1-41" value="Continue" style="ellipse;whiteSpace=wrap;html=1;" parent="1" vertex="1">
          <mxGeometry x="3150" y="-707.5" width="80" height="80" as="geometry" />
        </mxCell>
        <mxCell id="Uj63u55Qgy3ets4iOGi1-45" value="Continue" style="ellipse;whiteSpace=wrap;html=1;" parent="1" vertex="1">
          <mxGeometry x="3240" y="-400" width="80" height="80" as="geometry" />
        </mxCell>
        <mxCell id="Uj63u55Qgy3ets4iOGi1-96" style="edgeStyle=orthogonalEdgeStyle;rounded=0;orthogonalLoop=1;jettySize=auto;html=1;entryX=0;entryY=0.5;entryDx=0;entryDy=0;" parent="1" target="Uj63u55Qgy3ets4iOGi1-99" edge="1">
          <mxGeometry relative="1" as="geometry">
            <mxPoint x="2646.75" y="-242.5" as="sourcePoint" />
          </mxGeometry>
        </mxCell>
        <mxCell id="Uj63u55Qgy3ets4iOGi1-97" style="edgeStyle=orthogonalEdgeStyle;rounded=0;orthogonalLoop=1;jettySize=auto;html=1;entryX=0.5;entryY=0;entryDx=0;entryDy=0;" parent="1" target="Uj63u55Qgy3ets4iOGi1-105" edge="1">
          <mxGeometry relative="1" as="geometry">
            <mxPoint x="2606.75" y="-202.5" as="sourcePoint" />
          </mxGeometry>
        </mxCell>
        <mxCell id="Uj63u55Qgy3ets4iOGi1-98" style="edgeStyle=orthogonalEdgeStyle;rounded=0;orthogonalLoop=1;jettySize=auto;html=1;" parent="1" source="Uj63u55Qgy3ets4iOGi1-99" target="Uj63u55Qgy3ets4iOGi1-102" edge="1">
          <mxGeometry relative="1" as="geometry" />
        </mxCell>
        <mxCell id="Uj63u55Qgy3ets4iOGi1-99" value="Collision with&amp;nbsp;&lt;div&gt;boundary, brick, steel, enemy, &lt;br&gt;base, player and &lt;br&gt;player bullet&lt;/div&gt;" style="rhombus;whiteSpace=wrap;html=1;" parent="1" vertex="1">
          <mxGeometry x="2708.75" y="-290" width="210" height="95" as="geometry" />
        </mxCell>
        <mxCell id="Uj63u55Qgy3ets4iOGi1-100" value="Yes" style="text;html=1;align=center;verticalAlign=middle;resizable=0;points=[];autosize=1;strokeColor=none;fillColor=none;" parent="1" vertex="1">
          <mxGeometry x="2678.75" y="-274.5" width="40" height="30" as="geometry" />
        </mxCell>
        <mxCell id="Uj63u55Qgy3ets4iOGi1-101" style="edgeStyle=orthogonalEdgeStyle;rounded=0;orthogonalLoop=1;jettySize=auto;html=1;entryX=1;entryY=0.5;entryDx=0;entryDy=0;" parent="1" source="Uj63u55Qgy3ets4iOGi1-102" target="Uj63u55Qgy3ets4iOGi1-122" edge="1">
          <mxGeometry relative="1" as="geometry">
            <Array as="points">
              <mxPoint x="3218.75" y="-242.5" />
              <mxPoint x="3218.75" y="307.5" />
            </Array>
          </mxGeometry>
        </mxCell>
        <mxCell id="Uj63u55Qgy3ets4iOGi1-102" value="Bullet.Destroy()" style="rounded=1;whiteSpace=wrap;html=1;" parent="1" vertex="1">
          <mxGeometry x="2988.75" y="-272.5" width="210" height="60" as="geometry" />
        </mxCell>
        <mxCell id="Uj63u55Qgy3ets4iOGi1-103" value="Yes" style="text;html=1;align=center;verticalAlign=middle;resizable=0;points=[];autosize=1;strokeColor=none;fillColor=none;" parent="1" vertex="1">
          <mxGeometry x="2948.75" y="-272.5" width="40" height="30" as="geometry" />
        </mxCell>
        <mxCell id="Uj63u55Qgy3ets4iOGi1-104" value="" style="edgeStyle=orthogonalEdgeStyle;rounded=0;orthogonalLoop=1;jettySize=auto;html=1;" parent="1" source="Uj63u55Qgy3ets4iOGi1-105" target="Uj63u55Qgy3ets4iOGi1-108" edge="1">
          <mxGeometry relative="1" as="geometry" />
        </mxCell>
        <mxCell id="Uj63u55Qgy3ets4iOGi1-123" style="edgeStyle=orthogonalEdgeStyle;rounded=0;orthogonalLoop=1;jettySize=auto;html=1;entryX=0.5;entryY=0;entryDx=0;entryDy=0;" parent="1" source="Uj63u55Qgy3ets4iOGi1-105" target="Uj63u55Qgy3ets4iOGi1-112" edge="1">
          <mxGeometry relative="1" as="geometry" />
        </mxCell>
        <mxCell id="Uj63u55Qgy3ets4iOGi1-105" value="Collision with&amp;nbsp;&lt;div&gt;boundary, steel,&lt;br&gt;base, player and &lt;br&gt;player bullet&lt;/div&gt;" style="rhombus;whiteSpace=wrap;html=1;" parent="1" vertex="1">
          <mxGeometry x="2501.25" y="-117.5" width="210" height="95" as="geometry" />
        </mxCell>
        <mxCell id="Uj63u55Qgy3ets4iOGi1-106" value="No" style="text;html=1;align=center;verticalAlign=middle;resizable=0;points=[];autosize=1;strokeColor=none;fillColor=none;" parent="1" vertex="1">
          <mxGeometry x="2598.75" y="-204.5" width="40" height="30" as="geometry" />
        </mxCell>
        <mxCell id="Uj63u55Qgy3ets4iOGi1-107" style="edgeStyle=orthogonalEdgeStyle;rounded=0;orthogonalLoop=1;jettySize=auto;html=1;entryX=0;entryY=0.5;entryDx=0;entryDy=0;" parent="1" source="Uj63u55Qgy3ets4iOGi1-108" target="Uj63u55Qgy3ets4iOGi1-121" edge="1">
          <mxGeometry relative="1" as="geometry" />
        </mxCell>
        <mxCell id="Uj63u55Qgy3ets4iOGi1-108" value="Bullet.Destroy()" style="rounded=1;whiteSpace=wrap;html=1;" parent="1" vertex="1">
          <mxGeometry x="2788.75" y="-100" width="120" height="60" as="geometry" />
        </mxCell>
        <mxCell id="Uj63u55Qgy3ets4iOGi1-109" value="Yes" style="text;html=1;align=center;verticalAlign=middle;resizable=0;points=[];autosize=1;strokeColor=none;fillColor=none;" parent="1" vertex="1">
          <mxGeometry x="2748.75" y="-100" width="40" height="30" as="geometry" />
        </mxCell>
        <mxCell id="Uj63u55Qgy3ets4iOGi1-110" value="" style="edgeStyle=orthogonalEdgeStyle;rounded=0;orthogonalLoop=1;jettySize=auto;html=1;" parent="1" source="Uj63u55Qgy3ets4iOGi1-112" target="Uj63u55Qgy3ets4iOGi1-114" edge="1">
          <mxGeometry relative="1" as="geometry" />
        </mxCell>
        <mxCell id="Uj63u55Qgy3ets4iOGi1-111" style="edgeStyle=orthogonalEdgeStyle;rounded=0;orthogonalLoop=1;jettySize=auto;html=1;entryX=0;entryY=0.5;entryDx=0;entryDy=0;" parent="1" source="Uj63u55Qgy3ets4iOGi1-112" target="Uj63u55Qgy3ets4iOGi1-117" edge="1">
          <mxGeometry relative="1" as="geometry">
            <Array as="points">
              <mxPoint x="2606.75" y="177.5" />
            </Array>
          </mxGeometry>
        </mxCell>
        <mxCell id="Uj63u55Qgy3ets4iOGi1-112" value="Collision with&amp;nbsp;&lt;div&gt;brick and enemy&lt;/div&gt;" style="rhombus;whiteSpace=wrap;html=1;" parent="1" vertex="1">
          <mxGeometry x="2501.25" y="22.5" width="210" height="95" as="geometry" />
        </mxCell>
        <mxCell id="Uj63u55Qgy3ets4iOGi1-113" style="edgeStyle=orthogonalEdgeStyle;rounded=0;orthogonalLoop=1;jettySize=auto;html=1;entryX=0;entryY=0.5;entryDx=0;entryDy=0;" parent="1" source="Uj63u55Qgy3ets4iOGi1-114" target="Uj63u55Qgy3ets4iOGi1-121" edge="1">
          <mxGeometry relative="1" as="geometry" />
        </mxCell>
        <mxCell id="Uj63u55Qgy3ets4iOGi1-114" value="Bullet.Hit()" style="rounded=1;whiteSpace=wrap;html=1;" parent="1" vertex="1">
          <mxGeometry x="2788.75" y="40" width="120" height="60" as="geometry" />
        </mxCell>
        <mxCell id="Uj63u55Qgy3ets4iOGi1-115" value="Yes" style="text;html=1;align=center;verticalAlign=middle;resizable=0;points=[];autosize=1;strokeColor=none;fillColor=none;" parent="1" vertex="1">
          <mxGeometry x="2748.75" y="40" width="40" height="30" as="geometry" />
        </mxCell>
        <mxCell id="Uj63u55Qgy3ets4iOGi1-116" style="edgeStyle=orthogonalEdgeStyle;rounded=0;orthogonalLoop=1;jettySize=auto;html=1;entryX=0.5;entryY=0;entryDx=0;entryDy=0;" parent="1" source="Uj63u55Qgy3ets4iOGi1-117" target="Uj63u55Qgy3ets4iOGi1-122" edge="1">
          <mxGeometry relative="1" as="geometry" />
        </mxCell>
        <mxCell id="Uj63u55Qgy3ets4iOGi1-117" value="Bullet.Move()" style="rounded=1;whiteSpace=wrap;html=1;" parent="1" vertex="1">
          <mxGeometry x="3058.75" y="147.5" width="120" height="60" as="geometry" />
        </mxCell>
        <mxCell id="Uj63u55Qgy3ets4iOGi1-118" style="edgeStyle=orthogonalEdgeStyle;rounded=0;orthogonalLoop=1;jettySize=auto;html=1;entryX=0.5;entryY=0;entryDx=0;entryDy=0;" parent="1" source="Uj63u55Qgy3ets4iOGi1-99" target="Uj63u55Qgy3ets4iOGi1-117" edge="1">
          <mxGeometry relative="1" as="geometry">
            <Array as="points">
              <mxPoint x="2813.75" y="-125.5" />
              <mxPoint x="3118.75" y="-125.5" />
            </Array>
          </mxGeometry>
        </mxCell>
        <mxCell id="Uj63u55Qgy3ets4iOGi1-119" value="No" style="text;html=1;align=center;verticalAlign=middle;resizable=0;points=[];autosize=1;strokeColor=none;fillColor=none;" parent="1" vertex="1">
          <mxGeometry x="2808.75" y="-204.5" width="40" height="30" as="geometry" />
        </mxCell>
        <mxCell id="Uj63u55Qgy3ets4iOGi1-120" value="No" style="text;html=1;align=center;verticalAlign=middle;resizable=0;points=[];autosize=1;strokeColor=none;fillColor=none;" parent="1" vertex="1">
          <mxGeometry x="2598.75" y="117.5" width="40" height="30" as="geometry" />
        </mxCell>
        <mxCell id="Uj63u55Qgy3ets4iOGi1-121" value="Continue" style="ellipse;whiteSpace=wrap;html=1;" parent="1" vertex="1">
          <mxGeometry x="2988.75" y="-40" width="80" height="80" as="geometry" />
        </mxCell>
        <mxCell id="Uj63u55Qgy3ets4iOGi1-122" value="Continue" style="ellipse;whiteSpace=wrap;html=1;" parent="1" vertex="1">
          <mxGeometry x="3078.75" y="267.5" width="80" height="80" as="geometry" />
        </mxCell>
        <mxCell id="Uj63u55Qgy3ets4iOGi1-126" value="No" style="text;html=1;align=center;verticalAlign=middle;resizable=0;points=[];autosize=1;strokeColor=none;fillColor=none;" parent="1" vertex="1">
          <mxGeometry x="2598.75" y="-32" width="40" height="30" as="geometry" />
        </mxCell>
      </root>
    </mxGraphModel>
  </diagram>
  <diagram id="RNOtlEpNkN_X_S9FSB3h" name="Base">
    <mxGraphModel dx="2284" dy="1924" grid="1" gridSize="10" guides="1" tooltips="1" connect="1" arrows="1" fold="1" page="1" pageScale="1" pageWidth="850" pageHeight="1100" math="0" shadow="0">
      <root>
        <mxCell id="0" />
        <mxCell id="1" parent="0" />
        <mxCell id="sClvi7EjUKD-ko8y4pmn-1" style="edgeStyle=orthogonalEdgeStyle;rounded=0;orthogonalLoop=1;jettySize=auto;html=1;entryX=0.5;entryY=0;entryDx=0;entryDy=0;" parent="1" target="sClvi7EjUKD-ko8y4pmn-4" edge="1">
          <mxGeometry relative="1" as="geometry">
            <mxPoint x="-485.5" y="-820" as="targetPoint" />
            <mxPoint x="-478" y="-885" as="sourcePoint" />
          </mxGeometry>
        </mxCell>
        <mxCell id="sClvi7EjUKD-ko8y4pmn-2" style="edgeStyle=orthogonalEdgeStyle;rounded=0;orthogonalLoop=1;jettySize=auto;html=1;entryX=0;entryY=0.5;entryDx=0;entryDy=0;" parent="1" source="sClvi7EjUKD-ko8y4pmn-4" target="sClvi7EjUKD-ko8y4pmn-7" edge="1">
          <mxGeometry relative="1" as="geometry" />
        </mxCell>
        <mxCell id="sClvi7EjUKD-ko8y4pmn-3" style="edgeStyle=orthogonalEdgeStyle;rounded=0;orthogonalLoop=1;jettySize=auto;html=1;entryX=0.5;entryY=0;entryDx=0;entryDy=0;" parent="1" source="sClvi7EjUKD-ko8y4pmn-4" target="sClvi7EjUKD-ko8y4pmn-9" edge="1">
          <mxGeometry relative="1" as="geometry" />
        </mxCell>
        <mxCell id="sClvi7EjUKD-ko8y4pmn-4" value="Player used&lt;br&gt;power up" style="rhombus;whiteSpace=wrap;html=1;" parent="1" vertex="1">
          <mxGeometry x="-530" y="-800" width="105" height="95" as="geometry" />
        </mxCell>
        <mxCell id="sClvi7EjUKD-ko8y4pmn-5" value="Yes" style="text;html=1;align=center;verticalAlign=middle;resizable=0;points=[];autosize=1;strokeColor=none;fillColor=none;" parent="1" vertex="1">
          <mxGeometry x="-382.5" y="-777.5" width="40" height="30" as="geometry" />
        </mxCell>
        <mxCell id="C966mDGq45IsLQzFMlAl-4" style="edgeStyle=orthogonalEdgeStyle;rounded=0;orthogonalLoop=1;jettySize=auto;html=1;entryX=0.5;entryY=0;entryDx=0;entryDy=0;" edge="1" parent="1" source="sClvi7EjUKD-ko8y4pmn-7" target="sClvi7EjUKD-ko8y4pmn-9">
          <mxGeometry relative="1" as="geometry">
            <Array as="points">
              <mxPoint x="-109" y="-752" />
              <mxPoint x="-109" y="-630" />
            </Array>
          </mxGeometry>
        </mxCell>
        <mxCell id="sClvi7EjUKD-ko8y4pmn-7" value="base.PowerUpUsed()" style="rounded=1;whiteSpace=wrap;html=1;" parent="1" vertex="1">
          <mxGeometry x="-342.5" y="-782.5" width="210" height="60" as="geometry" />
        </mxCell>
        <mxCell id="sClvi7EjUKD-ko8y4pmn-8" style="edgeStyle=orthogonalEdgeStyle;rounded=0;orthogonalLoop=1;jettySize=auto;html=1;entryX=0;entryY=0.5;entryDx=0;entryDy=0;" parent="1" source="sClvi7EjUKD-ko8y4pmn-9" target="sClvi7EjUKD-ko8y4pmn-10" edge="1">
          <mxGeometry relative="1" as="geometry" />
        </mxCell>
        <mxCell id="C966mDGq45IsLQzFMlAl-3" style="edgeStyle=orthogonalEdgeStyle;rounded=0;orthogonalLoop=1;jettySize=auto;html=1;entryX=0.5;entryY=0;entryDx=0;entryDy=0;" edge="1" parent="1" source="sClvi7EjUKD-ko8y4pmn-9" target="C966mDGq45IsLQzFMlAl-2">
          <mxGeometry relative="1" as="geometry" />
        </mxCell>
        <mxCell id="sClvi7EjUKD-ko8y4pmn-9" value="Collision with&lt;br&gt;player or enemy bullet" style="rhombus;whiteSpace=wrap;html=1;" parent="1" vertex="1">
          <mxGeometry x="-530" y="-630" width="105" height="95" as="geometry" />
        </mxCell>
        <mxCell id="C966mDGq45IsLQzFMlAl-7" value="" style="edgeStyle=orthogonalEdgeStyle;rounded=0;orthogonalLoop=1;jettySize=auto;html=1;" edge="1" parent="1" source="sClvi7EjUKD-ko8y4pmn-10" target="C966mDGq45IsLQzFMlAl-6">
          <mxGeometry relative="1" as="geometry" />
        </mxCell>
        <mxCell id="sClvi7EjUKD-ko8y4pmn-10" value="base.Destroy()" style="rounded=1;whiteSpace=wrap;html=1;" parent="1" vertex="1">
          <mxGeometry x="-339.5" y="-612.5" width="210" height="60" as="geometry" />
        </mxCell>
        <mxCell id="C966mDGq45IsLQzFMlAl-1" value="Start" style="ellipse;whiteSpace=wrap;html=1;aspect=fixed;" vertex="1" parent="1">
          <mxGeometry x="-517.5" y="-960" width="80" height="80" as="geometry" />
        </mxCell>
        <mxCell id="C966mDGq45IsLQzFMlAl-2" value="Continue" style="ellipse;whiteSpace=wrap;html=1;aspect=fixed;" vertex="1" parent="1">
          <mxGeometry x="-517.5" y="-460" width="80" height="80" as="geometry" />
        </mxCell>
        <mxCell id="C966mDGq45IsLQzFMlAl-6" value="End" style="ellipse;whiteSpace=wrap;html=1;rounded=1;" vertex="1" parent="1">
          <mxGeometry x="-90" y="-622.5" width="80" height="80" as="geometry" />
        </mxCell>
        <mxCell id="C966mDGq45IsLQzFMlAl-8" value="Yes" style="text;html=1;align=center;verticalAlign=middle;resizable=0;points=[];autosize=1;strokeColor=none;fillColor=none;" vertex="1" parent="1">
          <mxGeometry x="-380" y="-612" width="40" height="30" as="geometry" />
        </mxCell>
        <mxCell id="C966mDGq45IsLQzFMlAl-10" value="No" style="text;html=1;align=center;verticalAlign=middle;resizable=0;points=[];autosize=1;strokeColor=none;fillColor=none;" vertex="1" parent="1">
          <mxGeometry x="-480" y="-542" width="40" height="30" as="geometry" />
        </mxCell>
      </root>
    </mxGraphModel>
  </diagram>
  <diagram id="ArxyvgPkKHFTBrDTmmio" name="BrickBlock">
    <mxGraphModel dx="584" dy="1924" grid="1" gridSize="10" guides="1" tooltips="1" connect="1" arrows="1" fold="1" page="1" pageScale="1" pageWidth="850" pageHeight="1100" math="0" shadow="0">
      <root>
        <mxCell id="0" />
        <mxCell id="1" parent="0" />
        <mxCell id="TcmmRIRi2CC-iS10JcBi-1" style="edgeStyle=orthogonalEdgeStyle;rounded=0;orthogonalLoop=1;jettySize=auto;html=1;entryX=0.5;entryY=0;entryDx=0;entryDy=0;" parent="1" target="TcmmRIRi2CC-iS10JcBi-3" edge="1">
          <mxGeometry relative="1" as="geometry">
            <mxPoint x="1207.5" y="-685" as="sourcePoint" />
          </mxGeometry>
        </mxCell>
        <mxCell id="TcmmRIRi2CC-iS10JcBi-2" style="edgeStyle=orthogonalEdgeStyle;rounded=0;orthogonalLoop=1;jettySize=auto;html=1;" parent="1" source="TcmmRIRi2CC-iS10JcBi-3" edge="1">
          <mxGeometry relative="1" as="geometry">
            <mxPoint x="1332.5" y="-557.5" as="targetPoint" />
          </mxGeometry>
        </mxCell>
        <mxCell id="xIJJKYJYExJHfMz1DKM3-5" style="edgeStyle=orthogonalEdgeStyle;rounded=0;orthogonalLoop=1;jettySize=auto;html=1;entryX=0.5;entryY=0;entryDx=0;entryDy=0;" edge="1" parent="1" source="TcmmRIRi2CC-iS10JcBi-3" target="xIJJKYJYExJHfMz1DKM3-2">
          <mxGeometry relative="1" as="geometry" />
        </mxCell>
        <object label="Collision with bullet" bullet="all bullet arrays" id="TcmmRIRi2CC-iS10JcBi-3">
          <mxCell style="rhombus;whiteSpace=wrap;html=1;" parent="1" vertex="1">
            <mxGeometry x="1130" y="-605" width="155" height="95" as="geometry" />
          </mxCell>
        </object>
        <mxCell id="TcmmRIRi2CC-iS10JcBi-4" value="Yes" style="text;html=1;align=center;verticalAlign=middle;resizable=0;points=[];autosize=1;strokeColor=none;fillColor=none;" parent="1" vertex="1">
          <mxGeometry x="1292.5" y="-585" width="40" height="30" as="geometry" />
        </mxCell>
        <mxCell id="xIJJKYJYExJHfMz1DKM3-4" style="edgeStyle=orthogonalEdgeStyle;rounded=0;orthogonalLoop=1;jettySize=auto;html=1;entryX=1;entryY=0.5;entryDx=0;entryDy=0;entryPerimeter=0;" edge="1" parent="1" source="TcmmRIRi2CC-iS10JcBi-5" target="xIJJKYJYExJHfMz1DKM3-2">
          <mxGeometry relative="1" as="geometry">
            <Array as="points">
              <mxPoint x="1570" y="-557" />
              <mxPoint x="1570" y="-430" />
            </Array>
          </mxGeometry>
        </mxCell>
        <mxCell id="TcmmRIRi2CC-iS10JcBi-5" value="Brickblock.Destroy()" style="rounded=1;whiteSpace=wrap;html=1;" parent="1" vertex="1">
          <mxGeometry x="1332.5" y="-587.5" width="210" height="60" as="geometry" />
        </mxCell>
        <mxCell id="xIJJKYJYExJHfMz1DKM3-1" value="Start&lt;span style=&quot;color: rgba(0, 0, 0, 0); font-family: monospace; font-size: 0px; text-align: start; text-wrap: nowrap;&quot;&gt;%3CmxGraphModel%3E%3Croot%3E%3CmxCell%20id%3D%220%22%2F%3E%3CmxCell%20id%3D%221%22%20parent%3D%220%22%2F%3E%3CmxCell%20id%3D%222%22%20value%3D%22Start%22%20style%3D%22ellipse%3BwhiteSpace%3Dwrap%3Bhtml%3D1%3Baspect%3Dfixed%3B%22%20vertex%3D%221%22%20parent%3D%221%22%3E%3CmxGeometry%20x%3D%22-418.5%22%20y%3D%22-960%22%20width%3D%2280%22%20height%3D%2280%22%20as%3D%22geometry%22%2F%3E%3C%2FmxCell%3E%3C%2Froot%3E%3C%2FmxGraphModel%3E&lt;/span&gt;" style="ellipse;whiteSpace=wrap;html=1;aspect=fixed;" vertex="1" parent="1">
          <mxGeometry x="1167.5" y="-760" width="80" height="80" as="geometry" />
        </mxCell>
        <mxCell id="xIJJKYJYExJHfMz1DKM3-2" value="Continue" style="ellipse;whiteSpace=wrap;html=1;aspect=fixed;" vertex="1" parent="1">
          <mxGeometry x="1167.5" y="-470" width="80" height="80" as="geometry" />
        </mxCell>
        <mxCell id="xIJJKYJYExJHfMz1DKM3-6" value="No" style="text;html=1;align=center;verticalAlign=middle;resizable=0;points=[];autosize=1;strokeColor=none;fillColor=none;" vertex="1" parent="1">
          <mxGeometry x="1200" y="-502" width="40" height="30" as="geometry" />
        </mxCell>
      </root>
    </mxGraphModel>
  </diagram>
  <diagram id="2D6l4B18RfKBPpU3M8Rt" name="SteelBlock">
    <mxGraphModel dx="-266" dy="1924" grid="1" gridSize="10" guides="1" tooltips="1" connect="1" arrows="1" fold="1" page="1" pageScale="1" pageWidth="850" pageHeight="1100" math="0" shadow="0">
      <root>
        <mxCell id="0" />
        <mxCell id="1" parent="0" />
        <mxCell id="DGeXKn-YIFhDsM81Fz4W-1" style="edgeStyle=orthogonalEdgeStyle;rounded=0;orthogonalLoop=1;jettySize=auto;html=1;entryX=0.5;entryY=0;entryDx=0;entryDy=0;" parent="1" target="DGeXKn-YIFhDsM81Fz4W-3" edge="1">
          <mxGeometry relative="1" as="geometry">
            <mxPoint x="2047.5" y="-802.5" as="sourcePoint" />
          </mxGeometry>
        </mxCell>
        <mxCell id="_7ppsPcBuJDxv3ZS3gh0-3" style="edgeStyle=orthogonalEdgeStyle;rounded=0;orthogonalLoop=1;jettySize=auto;html=1;entryX=0;entryY=0.5;entryDx=0;entryDy=0;" edge="1" parent="1" source="DGeXKn-YIFhDsM81Fz4W-3" target="DGeXKn-YIFhDsM81Fz4W-5">
          <mxGeometry relative="1" as="geometry" />
        </mxCell>
        <mxCell id="_7ppsPcBuJDxv3ZS3gh0-7" style="edgeStyle=orthogonalEdgeStyle;rounded=0;orthogonalLoop=1;jettySize=auto;html=1;" edge="1" parent="1" source="DGeXKn-YIFhDsM81Fz4W-3" target="_7ppsPcBuJDxv3ZS3gh0-6">
          <mxGeometry relative="1" as="geometry" />
        </mxCell>
        <object label="Collision with &lt;br&gt;armored bullet" armoredBullet="both player and enemy" id="DGeXKn-YIFhDsM81Fz4W-3">
          <mxCell style="rhombus;whiteSpace=wrap;html=1;" parent="1" vertex="1">
            <mxGeometry x="1970" y="-722.5" width="155" height="95" as="geometry" />
          </mxCell>
        </object>
        <mxCell id="_7ppsPcBuJDxv3ZS3gh0-9" style="edgeStyle=orthogonalEdgeStyle;rounded=0;orthogonalLoop=1;jettySize=auto;html=1;entryX=1;entryY=0.5;entryDx=0;entryDy=0;" edge="1" parent="1" source="DGeXKn-YIFhDsM81Fz4W-5" target="_7ppsPcBuJDxv3ZS3gh0-6">
          <mxGeometry relative="1" as="geometry">
            <Array as="points">
              <mxPoint x="2470" y="-675" />
              <mxPoint x="2470" y="-490" />
            </Array>
          </mxGeometry>
        </mxCell>
        <mxCell id="DGeXKn-YIFhDsM81Fz4W-5" value="SteelBlock.Destroy()" style="rounded=1;whiteSpace=wrap;html=1;" parent="1" vertex="1">
          <mxGeometry x="2230" y="-705" width="210" height="60" as="geometry" />
        </mxCell>
        <mxCell id="_7ppsPcBuJDxv3ZS3gh0-4" value="Yes" style="text;html=1;align=center;verticalAlign=middle;resizable=0;points=[];autosize=1;strokeColor=none;fillColor=none;" vertex="1" parent="1">
          <mxGeometry x="2190" y="-702" width="40" height="30" as="geometry" />
        </mxCell>
        <mxCell id="_7ppsPcBuJDxv3ZS3gh0-5" value="Start" style="ellipse;whiteSpace=wrap;html=1;aspect=fixed;" vertex="1" parent="1">
          <mxGeometry x="2007.5" y="-880" width="80" height="80" as="geometry" />
        </mxCell>
        <mxCell id="_7ppsPcBuJDxv3ZS3gh0-6" value="Continue" style="ellipse;whiteSpace=wrap;html=1;aspect=fixed;" vertex="1" parent="1">
          <mxGeometry x="2007.5" y="-530" width="80" height="80" as="geometry" />
        </mxCell>
        <mxCell id="_7ppsPcBuJDxv3ZS3gh0-8" value="No" style="text;html=1;align=center;verticalAlign=middle;resizable=0;points=[];autosize=1;strokeColor=none;fillColor=none;" vertex="1" parent="1">
          <mxGeometry x="2040" y="-627.5" width="40" height="30" as="geometry" />
        </mxCell>
      </root>
    </mxGraphModel>
  </diagram>
  <diagram id="NltwswK93lbV8zqneiZr" name="PowerUp">
    <mxGraphModel dx="2284" dy="1924" grid="1" gridSize="10" guides="1" tooltips="1" connect="1" arrows="1" fold="1" page="1" pageScale="1" pageWidth="850" pageHeight="1100" math="0" shadow="0">
      <root>
        <mxCell id="0" />
        <mxCell id="1" parent="0" />
        <mxCell id="r-gW--qNYDBA1Wgbb7QX-1" style="edgeStyle=orthogonalEdgeStyle;rounded=0;orthogonalLoop=1;jettySize=auto;html=1;" parent="1" edge="1">
          <mxGeometry relative="1" as="geometry">
            <mxPoint x="-466" y="-682.5" as="targetPoint" />
            <mxPoint x="-466" y="-762.5" as="sourcePoint" />
          </mxGeometry>
        </mxCell>
        <mxCell id="r-gW--qNYDBA1Wgbb7QX-2" style="edgeStyle=orthogonalEdgeStyle;rounded=0;orthogonalLoop=1;jettySize=auto;html=1;" parent="1" source="r-gW--qNYDBA1Wgbb7QX-4" edge="1">
          <mxGeometry relative="1" as="geometry">
            <mxPoint x="-341" y="-635" as="targetPoint" />
          </mxGeometry>
        </mxCell>
        <mxCell id="r-gW--qNYDBA1Wgbb7QX-3" style="edgeStyle=orthogonalEdgeStyle;rounded=0;orthogonalLoop=1;jettySize=auto;html=1;" parent="1" source="r-gW--qNYDBA1Wgbb7QX-4" edge="1">
          <mxGeometry relative="1" as="geometry">
            <mxPoint x="-466" y="-512.5" as="targetPoint" />
          </mxGeometry>
        </mxCell>
        <mxCell id="r-gW--qNYDBA1Wgbb7QX-4" value="Spawn time reached" style="rhombus;whiteSpace=wrap;html=1;" parent="1" vertex="1">
          <mxGeometry x="-513.5" y="-682.5" width="95" height="95" as="geometry" />
        </mxCell>
        <mxCell id="r-gW--qNYDBA1Wgbb7QX-5" value="Yes" style="text;html=1;align=center;verticalAlign=middle;resizable=0;points=[];autosize=1;strokeColor=none;fillColor=none;" parent="1" vertex="1">
          <mxGeometry x="-381" y="-662.5" width="40" height="30" as="geometry" />
        </mxCell>
        <mxCell id="H5oO8SMfRTG9lZxdez_J-2" style="edgeStyle=orthogonalEdgeStyle;rounded=0;orthogonalLoop=1;jettySize=auto;html=1;entryX=0.5;entryY=0;entryDx=0;entryDy=0;" parent="1" source="r-gW--qNYDBA1Wgbb7QX-7" target="r-gW--qNYDBA1Wgbb7QX-9" edge="1">
          <mxGeometry relative="1" as="geometry">
            <Array as="points">
              <mxPoint x="-90" y="-635" />
              <mxPoint x="-90" y="-512" />
            </Array>
          </mxGeometry>
        </mxCell>
        <mxCell id="r-gW--qNYDBA1Wgbb7QX-7" value="powerUp.Spawn()" style="rounded=1;whiteSpace=wrap;html=1;" parent="1" vertex="1">
          <mxGeometry x="-341" y="-665" width="210" height="60" as="geometry" />
        </mxCell>
        <mxCell id="r-gW--qNYDBA1Wgbb7QX-8" style="edgeStyle=orthogonalEdgeStyle;rounded=0;orthogonalLoop=1;jettySize=auto;html=1;" parent="1" source="r-gW--qNYDBA1Wgbb7QX-9" edge="1">
          <mxGeometry relative="1" as="geometry">
            <mxPoint x="-341" y="-465" as="targetPoint" />
          </mxGeometry>
        </mxCell>
        <mxCell id="klUJuJCoItXKb8ocQM7m-3" style="edgeStyle=orthogonalEdgeStyle;rounded=0;orthogonalLoop=1;jettySize=auto;html=1;" edge="1" parent="1" source="r-gW--qNYDBA1Wgbb7QX-9" target="klUJuJCoItXKb8ocQM7m-2">
          <mxGeometry relative="1" as="geometry" />
        </mxCell>
        <mxCell id="r-gW--qNYDBA1Wgbb7QX-9" value="Player landed on &lt;br&gt;spawned power up &lt;br&gt;position" style="rhombus;whiteSpace=wrap;html=1;" parent="1" vertex="1">
          <mxGeometry x="-540" y="-512.5" width="148" height="95" as="geometry" />
        </mxCell>
        <mxCell id="r-gW--qNYDBA1Wgbb7QX-10" value="Yes" style="text;html=1;align=center;verticalAlign=middle;resizable=0;points=[];autosize=1;strokeColor=none;fillColor=none;" parent="1" vertex="1">
          <mxGeometry x="-381" y="-492.5" width="40" height="30" as="geometry" />
        </mxCell>
        <mxCell id="4IY_VZYL2BcZ7d4GC735-1" style="edgeStyle=orthogonalEdgeStyle;rounded=0;orthogonalLoop=1;jettySize=auto;html=1;entryX=1;entryY=0.5;entryDx=0;entryDy=0;" edge="1" parent="1" source="r-gW--qNYDBA1Wgbb7QX-11" target="klUJuJCoItXKb8ocQM7m-2">
          <mxGeometry relative="1" as="geometry">
            <Array as="points">
              <mxPoint x="-90" y="-465" />
              <mxPoint x="-90" y="-280" />
            </Array>
          </mxGeometry>
        </mxCell>
        <mxCell id="r-gW--qNYDBA1Wgbb7QX-11" value="powerUp.Consumed()" style="rounded=1;whiteSpace=wrap;html=1;" parent="1" vertex="1">
          <mxGeometry x="-341" y="-495" width="210" height="60" as="geometry" />
        </mxCell>
        <mxCell id="H5oO8SMfRTG9lZxdez_J-1" value="No" style="text;html=1;align=center;verticalAlign=middle;resizable=0;points=[];autosize=1;strokeColor=none;fillColor=none;" parent="1" vertex="1">
          <mxGeometry x="-470" y="-592" width="40" height="30" as="geometry" />
        </mxCell>
        <mxCell id="klUJuJCoItXKb8ocQM7m-1" value="Start" style="ellipse;whiteSpace=wrap;html=1;aspect=fixed;" vertex="1" parent="1">
          <mxGeometry x="-505" y="-840" width="80" height="80" as="geometry" />
        </mxCell>
        <mxCell id="klUJuJCoItXKb8ocQM7m-2" value="Continue" style="ellipse;whiteSpace=wrap;html=1;aspect=fixed;" vertex="1" parent="1">
          <mxGeometry x="-506" y="-320" width="80" height="80" as="geometry" />
        </mxCell>
        <mxCell id="klUJuJCoItXKb8ocQM7m-4" value="No" style="text;html=1;align=center;verticalAlign=middle;resizable=0;points=[];autosize=1;strokeColor=none;fillColor=none;" vertex="1" parent="1">
          <mxGeometry x="-470" y="-422" width="40" height="30" as="geometry" />
        </mxCell>
      </root>
    </mxGraphModel>
  </diagram>
  <diagram id="UdgeIq5a2K-GwayBq-m1" name="Status">
    <mxGraphModel dx="1434" dy="824" grid="1" gridSize="10" guides="1" tooltips="1" connect="1" arrows="1" fold="1" page="1" pageScale="1" pageWidth="850" pageHeight="1100" math="0" shadow="0">
      <root>
        <mxCell id="0" />
        <mxCell id="1" parent="0" />
        <mxCell id="2KVepfSEevtykpq6UzBY-2" value="" style="edgeStyle=orthogonalEdgeStyle;rounded=0;orthogonalLoop=1;jettySize=auto;html=1;" parent="1" source="0qM0YolHp2p-UpL1o6xN-1" target="2KVepfSEevtykpq6UzBY-1" edge="1">
          <mxGeometry relative="1" as="geometry" />
        </mxCell>
        <mxCell id="0qM0YolHp2p-UpL1o6xN-1" value="Start" style="ellipse;whiteSpace=wrap;html=1;aspect=fixed;" parent="1" vertex="1">
          <mxGeometry x="350" y="190" width="80" height="80" as="geometry" />
        </mxCell>
        <mxCell id="2KVepfSEevtykpq6UzBY-5" value="" style="edgeStyle=orthogonalEdgeStyle;rounded=0;orthogonalLoop=1;jettySize=auto;html=1;" parent="1" source="2KVepfSEevtykpq6UzBY-1" target="2KVepfSEevtykpq6UzBY-4" edge="1">
          <mxGeometry relative="1" as="geometry" />
        </mxCell>
        <mxCell id="2KVepfSEevtykpq6UzBY-8" value="" style="edgeStyle=orthogonalEdgeStyle;rounded=0;orthogonalLoop=1;jettySize=auto;html=1;" parent="1" source="2KVepfSEevtykpq6UzBY-1" target="2KVepfSEevtykpq6UzBY-7" edge="1">
          <mxGeometry relative="1" as="geometry" />
        </mxCell>
        <mxCell id="2KVepfSEevtykpq6UzBY-1" value="Enemy died" style="rhombus;whiteSpace=wrap;html=1;" parent="1" vertex="1">
          <mxGeometry x="350" y="350" width="80" height="80" as="geometry" />
        </mxCell>
        <mxCell id="2KVepfSEevtykpq6UzBY-18" style="edgeStyle=orthogonalEdgeStyle;rounded=0;orthogonalLoop=1;jettySize=auto;html=1;entryX=1;entryY=0.5;entryDx=0;entryDy=0;" parent="1" source="2KVepfSEevtykpq6UzBY-4" target="2KVepfSEevtykpq6UzBY-16" edge="1">
          <mxGeometry relative="1" as="geometry">
            <Array as="points">
              <mxPoint x="780" y="390" />
              <mxPoint x="780" y="870" />
            </Array>
          </mxGeometry>
        </mxCell>
        <mxCell id="2KVepfSEevtykpq6UzBY-4" value="Status.SetNumberOfEnemies()" style="rounded=1;whiteSpace=wrap;html=1;" parent="1" vertex="1">
          <mxGeometry x="490" y="360" width="180" height="60" as="geometry" />
        </mxCell>
        <mxCell id="2KVepfSEevtykpq6UzBY-6" value="Yes" style="text;html=1;align=center;verticalAlign=middle;resizable=0;points=[];autosize=1;strokeColor=none;fillColor=none;" parent="1" vertex="1">
          <mxGeometry x="450" y="360" width="40" height="30" as="geometry" />
        </mxCell>
        <mxCell id="2KVepfSEevtykpq6UzBY-10" value="" style="edgeStyle=orthogonalEdgeStyle;rounded=0;orthogonalLoop=1;jettySize=auto;html=1;" parent="1" source="2KVepfSEevtykpq6UzBY-7" target="2KVepfSEevtykpq6UzBY-9" edge="1">
          <mxGeometry relative="1" as="geometry" />
        </mxCell>
        <mxCell id="2KVepfSEevtykpq6UzBY-13" value="" style="edgeStyle=orthogonalEdgeStyle;rounded=0;orthogonalLoop=1;jettySize=auto;html=1;" parent="1" source="2KVepfSEevtykpq6UzBY-7" target="2KVepfSEevtykpq6UzBY-12" edge="1">
          <mxGeometry relative="1" as="geometry" />
        </mxCell>
        <mxCell id="2KVepfSEevtykpq6UzBY-7" value="Player1 died" style="rhombus;whiteSpace=wrap;html=1;" parent="1" vertex="1">
          <mxGeometry x="350" y="510" width="80" height="80" as="geometry" />
        </mxCell>
        <mxCell id="2KVepfSEevtykpq6UzBY-20" style="edgeStyle=orthogonalEdgeStyle;rounded=0;orthogonalLoop=1;jettySize=auto;html=1;entryX=1;entryY=0.5;entryDx=0;entryDy=0;" parent="1" source="2KVepfSEevtykpq6UzBY-9" target="2KVepfSEevtykpq6UzBY-16" edge="1">
          <mxGeometry relative="1" as="geometry">
            <Array as="points">
              <mxPoint x="740" y="550" />
              <mxPoint x="740" y="870" />
            </Array>
          </mxGeometry>
        </mxCell>
        <mxCell id="2KVepfSEevtykpq6UzBY-9" value="Status.SetPlayer1Lifes()" style="rounded=1;whiteSpace=wrap;html=1;" parent="1" vertex="1">
          <mxGeometry x="490" y="520" width="180" height="60" as="geometry" />
        </mxCell>
        <mxCell id="2KVepfSEevtykpq6UzBY-15" value="" style="edgeStyle=orthogonalEdgeStyle;rounded=0;orthogonalLoop=1;jettySize=auto;html=1;" parent="1" source="2KVepfSEevtykpq6UzBY-12" target="2KVepfSEevtykpq6UzBY-14" edge="1">
          <mxGeometry relative="1" as="geometry" />
        </mxCell>
        <mxCell id="2KVepfSEevtykpq6UzBY-17" value="" style="edgeStyle=orthogonalEdgeStyle;rounded=0;orthogonalLoop=1;jettySize=auto;html=1;" parent="1" source="2KVepfSEevtykpq6UzBY-12" target="2KVepfSEevtykpq6UzBY-16" edge="1">
          <mxGeometry relative="1" as="geometry" />
        </mxCell>
        <mxCell id="2KVepfSEevtykpq6UzBY-12" value="Player2 died" style="rhombus;whiteSpace=wrap;html=1;" parent="1" vertex="1">
          <mxGeometry x="350" y="670" width="80" height="80" as="geometry" />
        </mxCell>
        <mxCell id="2KVepfSEevtykpq6UzBY-21" style="edgeStyle=orthogonalEdgeStyle;rounded=0;orthogonalLoop=1;jettySize=auto;html=1;entryX=1;entryY=0.5;entryDx=0;entryDy=0;" parent="1" source="2KVepfSEevtykpq6UzBY-14" target="2KVepfSEevtykpq6UzBY-16" edge="1">
          <mxGeometry relative="1" as="geometry">
            <Array as="points">
              <mxPoint x="700" y="710" />
              <mxPoint x="700" y="870" />
            </Array>
          </mxGeometry>
        </mxCell>
        <mxCell id="2KVepfSEevtykpq6UzBY-14" value="Status.SetPlayer2Lifes()" style="rounded=1;whiteSpace=wrap;html=1;" parent="1" vertex="1">
          <mxGeometry x="490" y="680" width="180" height="60" as="geometry" />
        </mxCell>
        <mxCell id="2KVepfSEevtykpq6UzBY-16" value="Continue" style="ellipse;whiteSpace=wrap;html=1;" parent="1" vertex="1">
          <mxGeometry x="350" y="830" width="80" height="80" as="geometry" />
        </mxCell>
        <mxCell id="2KVepfSEevtykpq6UzBY-22" value="Yes" style="text;html=1;align=center;verticalAlign=middle;resizable=0;points=[];autosize=1;strokeColor=none;fillColor=none;" parent="1" vertex="1">
          <mxGeometry x="450" y="520" width="40" height="30" as="geometry" />
        </mxCell>
        <mxCell id="2KVepfSEevtykpq6UzBY-24" value="Yes" style="text;html=1;align=center;verticalAlign=middle;resizable=0;points=[];autosize=1;strokeColor=none;fillColor=none;" parent="1" vertex="1">
          <mxGeometry x="450" y="680" width="40" height="30" as="geometry" />
        </mxCell>
      </root>
    </mxGraphModel>
  </diagram>
</mxfile>
